<svg xmlns="http://www.w3.org/2000/svg" version="1.1" xmlns:xlink="http://www.w3.org/1999/xlink" xmlns:svgjs="http://svgjs.com/svgjs" width="1920" height="1080" preserveAspectRatio="none" viewBox="0 0 1920 1080"><g mask="url(&quot;#SvgjsMask1102&quot;)" fill="none"><rect width="1920" height="1080" x="0" y="0" fill="rgba(35, 228, 80, 1)"></rect><path d="M270 201.36C229.38 201.36 195 225.61 195 270C195 379.05 225 508.24 270 508.24C317.23 508.24 379.46 372.79 379.46 270C379.46 219.35 321.61 201.36 270 201.36" stroke="rgba(0, 0, 0, 1)" stroke-width="2"></path><path d="M1350 391.5C1243.93 391.5 1137.86 477.75 1137.86 540C1137.86 595.04 1243.93 626.09 1350 626.09C1456.07 626.09 1562.14 595.04 1562.14 540C1562.14 477.75 1456.07 391.5 1350 391.5" stroke="rgba(0, 0, 0, 1)" stroke-width="2"></path><path d="M540 754.84C506.51 754.84 473.38 772.32 473.38 810C473.38 911.42 506.28 1033.04 540 1033.04C573.79 1033.04 608.4 911.04 608.4 810C608.4 771.94 574.02 754.84 540 754.84" stroke="rgba(0, 0, 0, 1)" stroke-width="2"></path><path d="M1080 595.86C1038.5 595.86 1001.39 711.84 1001.39 810C1001.39 857.25 1039.54 886.67 1080 886.67C1123.2 886.67 1168.71 858.85 1168.71 810C1168.71 713.44 1122.16 595.86 1080 595.86" stroke="rgba(0, 0, 0, 1)" stroke-width="2"></path><path d="M0 210C21.2 210 66.07 228.32 70 270C81.64 393.32 60.3 408.82 31.15 540C25.3 566.32 8.55 585 0 585C-7.03 585 0 562.5 0 540C0 405 0 405 0 270C0 240 -13.8 210 0 210" stroke="rgba(0, 0, 0, 1)" stroke-width="2"></path><path d="M270 86.95C224.09 86.95 194.56 26.26 194.56 0C194.56 -17.21 232.28 0 270 0C352.74 0 435.48 -20.41 435.48 0C435.48 23.06 344.55 86.95 270 86.95" stroke="rgba(0, 0, 0, 1)" stroke-width="2"></path><path d="M597.86 270C620.72 153.14 536.71 75.29 595.86 0C642.78 -59.71 702.93 0 810 0C884.82 0 945.21 -47.21 959.64 0C986.46 87.79 943.94 144.24 892.5 270C869.12 327.15 842.02 312.03 810 365.81C761.64 447.03 731.74 457.11 731.74 540C731.74 597.15 772.92 591.53 810 645.88C865.02 726.53 915.95 732.53 915.95 810C915.95 871.92 863.72 924.66 810 924.66C754.94 924.66 757.82 863.35 698.4 810C622.82 742.15 618.79 682.26 540 682.26C462.44 682.26 459.09 742.11 385.71 810C324.09 867 334.92 932.05 270 932.05C184.25 932.05 84.38 876.93 84.38 810C84.38 736.35 183.67 736.62 270 650.89C319.61 601.62 314.51 596.48 356.25 540C449.51 413.83 438.56 398.94 540 285.58C559.37 263.94 592.79 295.93 597.86 270" stroke="rgba(0, 0, 0, 1)" stroke-width="2"></path><path d="M1350 218.92C1275.41 123.43 1229.1 73.79 1229.1 0C1229.1 -35.67 1289.55 0 1350 0C1462.5 0 1479.38 -28.69 1575 0C1614.38 11.81 1595.23 41.89 1620 81C1680.73 176.89 1746 183.26 1746 270C1746 335.03 1687.91 384.55 1620 384.55C1534.91 384.55 1530.91 325.77 1440 270C1395.91 242.95 1380.86 258.43 1350 218.92" stroke="rgba(0, 0, 0, 1)" stroke-width="2"></path><path d="M2095.71 270C2133.18 238.18 2141.73 195 2160 195C2173.87 195 2160 232.5 2160 270C2160 405 2160 405 2160 540C2160 657 2168.99 659.45 2160 774C2158.4 794.45 2155.51 797.85 2138.82 810C2020.51 896.16 2025.57 924.17 1890 970.63C1766.16 1013.07 1749.51 957.6 1620 987.8C1515.03 1012.28 1523.01 1045.18 1421.05 1080C1388.01 1091.28 1385.53 1080 1350 1080C1215 1080 1215 1080 1080 1080C1020.6 1080 961.2 1103.28 961.2 1080C961.2 1048.28 1019.49 1023.76 1080 970C1171.46 888.76 1174.78 892.36 1265.14 810C1309.78 769.31 1296.44 747.83 1350 723.91C1473.87 668.59 1492.95 705.17 1620 651.52C1710.69 613.22 1709.7 603.78 1785.48 540C1844.7 490.16 1831.45 475.25 1890 424.29C1986.56 340.25 1998.18 352.83 2095.71 270" stroke="rgba(0, 0, 0, 1)" stroke-width="2"></path><path d="M0 1048.24C3.34 1048.24 12.86 1068.45 12.86 1080C12.86 1084.33 1.85 1084.58 0 1080C-4.58 1068.7 -3.09 1048.24 0 1048.24" stroke="rgba(0, 0, 0, 1)" stroke-width="2"></path><path d="M810 162C766.96 162 712.24 53.41 712.24 0C712.24 -27.59 761.12 0 810 0C844.15 0 878.31 -22.67 878.31 0C878.31 58.33 849.99 162 810 162" stroke="rgba(0, 0, 0, 1)" stroke-width="2"></path><path d="M1350 36.49C1337.22 36.49 1329.85 12.3 1329.85 0C1329.85 -5.95 1339.93 0 1350 0C1368.75 0 1387.5 -7.62 1387.5 0C1387.5 10.63 1366.04 36.49 1350 36.49" stroke="rgba(0, 0, 0, 1)" stroke-width="2"></path><path d="M450 540C450 484.18 494.37 415.38 540 415.38C586.32 415.38 633.91 484.47 633.91 540C633.91 581.62 586.6 609.68 540 609.68C494.64 609.68 450 581.33 450 540" stroke="rgba(0, 0, 0, 1)" stroke-width="2"></path><path d="M2140.71 540C2140.71 534.3 2153.8 527.14 2160 527.14C2163.44 527.14 2160 533.57 2160 540C2160 544.5 2162.87 549 2160 549C2153.22 549 2140.71 545.23 2140.71 540" stroke="rgba(0, 0, 0, 1)" stroke-width="2"></path><path d="M225 810C225 792.14 249.76 771.43 270 771.43C286.29 771.43 298.05 791.63 298.05 810C298.05 825.71 285.74 839.59 270 839.59C249.21 839.59 225 826.22 225 810" stroke="rgba(0, 0, 0, 1)" stroke-width="2"></path><path d="M788.4 810C788.4 795.07 799.39 778.24 810 778.24C820.44 778.24 830.51 795.01 830.51 810C830.51 821.98 820.4 832.19 810 832.19C799.34 832.19 788.4 822.04 788.4 810" stroke="rgba(0, 0, 0, 1)" stroke-width="2"></path><path d="M1512 810C1512 803.78 1571.28 820.13 1620 798.26C1760.28 735.28 1773.45 636.75 1890 640.29C1966.69 642.62 2006.47 736.83 2006.47 810C2006.47 859.28 1954.45 882.99 1890 885.19C1761.21 889.58 1755.7 850.16 1620 823.17C1566.7 812.57 1512 816.23 1512 810" stroke="rgba(0, 0, 0, 1)" stroke-width="2"></path><path d="M1051.2 1080C1051.2 1072.31 1062.8 1053.33 1080 1053.33C1115.77 1053.33 1157.14 1073.14 1157.14 1080C1157.14 1086.48 1118.57 1080 1080 1080C1065.6 1080 1051.2 1085.64 1051.2 1080" stroke="rgba(0, 0, 0, 1)" stroke-width="2"></path></g><defs><mask id="SvgjsMask1102"><rect width="1920" height="1080" fill="#ffffff"></rect></mask></defs></svg>