<svg xmlns="http://www.w3.org/2000/svg" version="1.1" xmlns:xlink="http://www.w3.org/1999/xlink" xmlns:svgjs="http://svgjs.com/svgjs" width="1440" height="560" preserveAspectRatio="none" viewBox="0 0 1440 560"><g mask="url(&quot;#SvgjsMask1016&quot;)" fill="none"><rect width="1440" height="560" x="0" y="0" fill="rgba(15, 190, 100, 1)"></rect><path d="M -4.806941959804249,409 C 52.79,348.4 167.99,123.4 283.19305804019575,106 C 398.39,88.6 455.99,323.2 571.1930580401958,322 C 686.39,320.8 743.99,87.4 859.1930580401958,100 C 974.39,112.6 1031.99,383 1147.1930580401959,385 C 1262.39,387 1319.99,90.2 1435.1930580401959,110 C 1550.39,129.8 1722.23,477 1723.1930580401959,484 C 1724.15,491 1496.64,212.8 1440,145" stroke="rgba(3, 22, 12, 1)" stroke-width="2"></path><path d="M -114.37659221642247,462 C -56.78,382.2 58.42,72.4 173.62340778357753,63 C 288.82,53.6 346.42,410.2 461.62340778357753,415 C 576.82,419.8 634.42,113.6 749.6234077835775,87 C 864.82,60.4 922.42,269.4 1037.6234077835775,282 C 1152.82,294.6 1210.42,115 1325.6234077835775,150 C 1440.82,185 1590.75,431.8 1613.6234077835775,457 C 1636.5,482.2 1474.72,312.2 1440,276" stroke="rgba(3, 22, 12, 1)" stroke-width="2"></path><path d="M -284.751725371335,333 C -227.15,295.2 -111.95,125.2 3.2482746286650084,144 C 118.45,162.8 176.05,403.4 291.248274628665,427 C 406.45,450.6 464.05,255.6 579.2482746286651,262 C 694.45,268.4 752.05,465.4 867.2482746286651,459 C 982.45,452.6 1040.05,247.4 1155.248274628665,230 C 1270.45,212.6 1386.3,382.8 1443.248274628665,372 C 1500.2,361.2 1440.65,215.2 1440,176" stroke="rgba(3, 22, 12, 1)" stroke-width="2"></path><path d="M -300.6218064103603,405 C -243.02,361.4 -127.82,188.2 -12.621806410360293,187 C 102.58,185.8 160.18,394.2 275.3781935896397,399 C 390.58,403.8 448.18,213.8 563.3781935896397,211 C 678.58,208.2 736.18,384.8 851.3781935896397,385 C 966.58,385.2 1024.18,221.6 1139.3781935896397,212 C 1254.58,202.4 1367.25,351.4 1427.3781935896397,337 C 1487.5,322.6 1437.48,179.4 1440,140" stroke="rgba(3, 22, 12, 1)" stroke-width="2"></path><path d="M -431.61251272301786,408 C -374.01,359.4 -258.81,167.2 -143.61251272301786,165 C -28.41,162.8 29.19,381.4 144.38748727698214,397 C 259.59,412.6 317.19,238.2 432.38748727698214,243 C 547.59,247.8 605.19,456 720.3874872769821,421 C 835.59,386 893.19,59.4 1008.3874872769821,68 C 1123.59,76.6 1210.06,442 1296.387487276982,464 C 1382.71,486 1411.28,235.2 1440,178" stroke="rgba(3, 22, 12, 1)" stroke-width="2"></path><path d="M -506.80204487263376,431 C -449.2,383.6 -334,221.2 -218.80204487263376,194 C -103.6,166.8 -46,316 69.19795512736624,295 C 184.4,274 242,48.4 357.19795512736624,89 C 472.4,129.6 530,502 645.1979551273662,498 C 760.4,494 818,79.2 933.1979551273662,69 C 1048.4,58.8 1119.84,422.6 1221.1979551273662,447 C 1322.56,471.4 1396.24,242.2 1440,191" stroke="rgba(3, 22, 12, 1)" stroke-width="2"></path></g><defs><mask id="SvgjsMask1016"><rect width="1440" height="560" fill="#ffffff"></rect></mask></defs></svg>