<?xml version="1.0" encoding="utf-8"?>
<!-- Generator: Adobe Illustrator 27.2.0, SVG Export Plug-In . SVG Version: 6.00 Build 0)  -->
<svg version="1.1" id="Layer_1" xmlns="http://www.w3.org/2000/svg" xmlns:xlink="http://www.w3.org/1999/xlink" x="0px" y="0px"
	 viewBox="0 0 965.6 210" style="enable-background:new 0 0 965.6 210;" xml:space="preserve">
<style type="text/css">
	.st0{fill:#59BB82;}
	.st1{fill:#22A358;}
	.st2{fill:#206445;}
	.st3{fill:#138242;}
	.st4{fill:#297D57;}
	.st5{fill:#18A151;}
	.st6{fill:#4DBC4D;}
	.st7{fill:#70CF54;}
	.st8{fill:#1FA167;}
</style>
<g>
	<path class="st0" d="M700.7,79.4c-11.3,0-22.7-0.2-34.1-0.6C583.8,75.7,499.5,61.3,416.1,36C274.1-7.1,182.7-67.7,181.8-68.3
		l2.4-3.6c0.9,0.6,91.9,60.9,233.3,103.8c130.4,39.5,331.7,71.9,549.8,1.7l1.3,4.1C882.4,65.4,792.5,79.4,700.7,79.4z"/>
	<path class="st1" d="M603.7,54.4c-73.9,0-148.4-7.6-221.9-22.5C243,3.5,154.7-42.1,153.9-42.6l2-3.8c0.9,0.5,88.7,45.8,227,74
		c127.6,26,325.4,42.2,543.6-28.1l1.3,4.1C831,34.8,730.2,51.7,628,54C619.8,54.3,611.7,54.4,603.7,54.4L603.7,54.4z"/>
</g>
<g>
	<path class="st2" d="M955.5,2.3c0,0,1,114.1-33.5,157.8c0,0,30.5-41.7,29.3-156L955.5,2.3L955.5,2.3z"/>
	<path class="st2" d="M955.8,10c0,0-1.5,76,21.1,105.3c0,0-20-28-18.3-104.1L955.8,10L955.8,10z"/>
	<g>
		<g>
			<path class="st2" d="M962-35.6c0,0,23.7,48.4,46.1,69c21.9,20.2,35.6,13.4,35.5,1.4C1043.6,25.1,1026.5-15.6,962-35.6L962-35.6z"
				/>
			<g>
				<path class="st3" d="M965.2-34.6c0,0,43.5,33.6,74.2,78.8c0,0-44.9-57.1-77.4-79.8L965.2-34.6L965.2-34.6z"/>
				<polygon class="st3" points="975.8,-24.7 977.4,-13.4 976.5,-24 				"/>
			</g>
		</g>
		<g>
			<path class="st2" d="M921.4-38.9l2.1,7.5C910.8-15,896.7-1.2,882.8,10.1l-2.9-13.4l-2.6,17.7c-39.1,30.2-75.5,41.5-75.5,41.5
				c4.7-14.5,10.4-27.5,16.9-39l10.3,0.3l-8-4.2c22.9-38.6,54.2-60.6,80.2-73l8.8,3.7l-5.4-5.3c25.8-11.7,45.7-14,45.7-14
				c-7.1,15.4-15.5,29.2-24.8,41.4L921.4-38.9L921.4-38.9z"/>
			<path class="st2" d="M946.3-73.1c0,0-99.8,61.9-141.7,125.9C804.6,52.8,837.9,1.9,946.3-73.1z"/>
		</g>
		<g>
			<path class="st2" d="M970.7-36.3l7.7,0.6c11,17.7,19,35.6,24.8,52.6l-13.6-2l15.8,8.6c14.7,47.2,12.7,85.2,12.7,85.2
				c-12-9.4-22.1-19.3-30.7-29.4l3.9-9.5l-6.8,6c-28.2-34.9-38-71.9-40.6-100.6l6.5-7l-6.9,3.2c-2-28.3,2.8-47.7,2.8-47.7
				c12,12,21.9,24.7,30.3,37.6L970.7-36.3L970.7-36.3z"/>
			<g>
				<path class="st4" d="M947.2-71.6c0,0,23.4,115,68.9,176.6C1016.1,105,979.9,56.2,947.2-71.6z"/>
				<polygon class="st4" points="964.3,-12.2 988,6.8 964.4,-10.1 				"/>
				<polygon class="st4" points="969.6,5.9 960.6,25.9 969.9,8.1 				"/>
				<polygon class="st4" points="981.1,36.4 1001.4,54.2 980,34.1 				"/>
				<polygon class="st4" points="989,57.8 984.7,69.4 990,58.4 				"/>
				<polygon class="st4" points="998.5,74.1 1006.6,79.8 997.7,75.4 				"/>
			</g>
		</g>
		<g>
			<path class="st5" d="M943.9-78.9c0,0,72.2,24.2,105.2,51.8c32.3,27,25.3,47.3,8.5,49.5C1044.1,24.3,983.9,7.8,943.9-78.9z"/>
			<path class="st3" d="M945.9-74.6c0,0,55.1,54.7,124.1,89.4c0,0-88.3-52.3-126.1-93.7L945.9-74.6L945.9-74.6z"/>
		</g>
		<g>
			<path class="st5" d="M931-28.3l-6.4,1.3c-7.3,17.6-12,35.2-15,51.7l11.2-3.2L908.5,31c-7.1,45.7-1.2,81.2-1.2,81.2
				c9-10,16.4-20.2,22.5-30.4l-4.3-8.6l6.3,5.1c19.8-35.3,23.9-70.9,22.9-98.2l-6.3-6l6.1,2.4c-1.4-26.7-7.6-44.6-7.6-44.6
				c-8.7,12.4-15.7,25.2-21.2,38.1L931-28.3L931-28.3z"/>
			<g>
				<path class="st2" d="M946.8-63.6c0,0-6.9,110.2-38.2,172.2C908.6,108.6,933.5,59.4,946.8-63.6z"/>
				<polygon class="st2" points="939,-6.3 921.3,13.7 939.2,-4.3 				"/>
				<polygon class="st2" points="936.5,11.2 946.4,29.2 936.5,13.3 				"/>
				<polygon class="st2" points="930.3,40.9 915.3,59.5 931,38.6 				"/>
				<polygon class="st2" points="926.1,61.7 931,72.2 925.3,62.4 				"/>
				<polygon class="st2" points="919.9,77.9 913.7,84 920.7,79.1 				"/>
			</g>
		</g>
		<path class="st2" d="M882.7,13.7c22.9-37.2,53.1-60.1,53.1-60.1s-6.9,37.3-29.7,74.5C883.2,65.3,853,88.2,853,88.2
			S859.9,50.8,882.7,13.7L882.7,13.7z"/>
		<g>
			<path class="st6" d="M947.6-79.4c0,0-40.6,35.5-54.7,62.5c-13.8,26.4-3.6,37.8,7.9,34.7C910.2,15.3,945-11.8,947.6-79.4
				L947.6-79.4z"/>
			<path class="st5" d="M947.4-76c0,0-21.1,50.7-56.8,92.2c0,0,43.4-58.2,56.9-95.5L947.4-76z"/>
		</g>
	</g>
</g>
<g>
	<path class="st2" d="M7.5-3.6c0,0,1,114.1-33.5,157.8c0,0,30.5-41.7,29.3-156L7.5-3.6L7.5-3.6z"/>
	<path class="st2" d="M7.8,4.1c0,0-1.5,76,21.1,105.3c0,0-20-28-18.3-104.1L7.8,4.1L7.8,4.1z"/>
	<g>
		<g>
			<path class="st2" d="M14-41.5c0,0,23.7,48.4,46.1,69C82,47.7,95.7,40.9,95.6,28.9C95.6,19.2,78.5-21.5,14-41.5L14-41.5z"/>
			<g>
				<path class="st3" d="M17.2-40.5c0,0,43.5,33.6,74.2,78.8c0,0-44.9-57.1-77.4-79.8L17.2-40.5L17.2-40.5z"/>
				<polygon class="st3" points="27.8,-30.6 29.4,-19.3 28.5,-29.9 				"/>
			</g>
		</g>
		<g>
			<path class="st2" d="M-26.6-44.8l2.1,7.5C-37.2-20.9-51.3-7.1-65.2,4.2l-2.9-13.4l-2.6,17.7C-109.8,38.7-146.2,50-146.2,50
				c4.7-14.5,10.4-27.5,16.9-39l10.3,0.3l-8-4.2c22.9-38.6,54.2-60.6,80.2-73l8.8,3.7l-5.4-5.3c25.8-11.7,45.7-14,45.7-14
				c-7.1,15.4-15.5,29.2-24.8,41.4L-26.6-44.8L-26.6-44.8z"/>
			<path class="st2" d="M-1.7-79c0,0-99.8,61.9-141.7,125.9C-143.4,46.9-110.1-4-1.7-79z"/>
		</g>
		<g>
			<path class="st2" d="M22.7-42.2l7.7,0.6C41.4-23.9,49.4-6,55.2,11L41.6,9l15.8,8.6c14.7,47.2,12.7,85.2,12.7,85.2
				c-12-9.4-22.1-19.3-30.7-29.4l3.9-9.5l-6.8,6C8.3,35-1.5-2-4.1-30.7l6.5-7l-6.9,3.2c-2-28.3,2.8-47.7,2.8-47.7
				c12,12,21.9,24.7,30.3,37.6L22.7-42.2L22.7-42.2z"/>
			<g>
				<path class="st4" d="M-0.8-77.5c0,0,23.4,115,68.9,176.6C68.1,99.1,31.9,50.3-0.8-77.5z"/>
				<polygon class="st4" points="16.3,-18.1 40,0.9 16.4,-16 				"/>
				<polygon class="st4" points="21.6,0 12.6,20 21.9,2.2 				"/>
				<polygon class="st4" points="33.1,30.5 53.4,48.3 32,28.2 				"/>
				<polygon class="st4" points="41,51.9 36.7,63.5 42,52.5 				"/>
				<polygon class="st4" points="50.5,68.2 58.6,73.9 49.7,69.5 				"/>
			</g>
		</g>
		<g>
			<path class="st5" d="M-4.1-84.8c0,0,72.2,24.2,105.2,51.8c32.3,27,25.3,47.3,8.5,49.5C96.1,18.4,35.9,1.9-4.1-84.8z"/>
			<path class="st3" d="M-2.1-80.5c0,0,55.1,54.7,124.1,89.4c0,0-88.3-52.3-126.1-93.7L-2.1-80.5L-2.1-80.5z"/>
		</g>
		<g>
			<path class="st5" d="M-17-34.2l-6.4,1.3c-7.3,17.6-12,35.2-15,51.7l11.2-3.2l-12.3,9.5c-7.1,45.7-1.2,81.2-1.2,81.2
				c9-10,16.4-20.2,22.5-30.4l-4.3-8.6l6.3,5.1C3.6,37.1,7.7,1.5,6.7-25.8l-6.3-6l6.1,2.4C5.1-56.1-1.1-74-1.1-74
				c-8.7,12.4-15.7,25.2-21.2,38.1L-17-34.2L-17-34.2z"/>
			<g>
				<path class="st2" d="M-1.2-69.5c0,0-6.9,110.2-38.2,172.2C-39.4,102.7-14.5,53.5-1.2-69.5z"/>
				<polygon class="st2" points="-9,-12.2 -26.7,7.8 -8.8,-10.2 				"/>
				<polygon class="st2" points="-11.5,5.3 -1.6,23.3 -11.5,7.4 				"/>
				<polygon class="st2" points="-17.7,35 -32.7,53.6 -17,32.7 				"/>
				<polygon class="st2" points="-21.9,55.8 -17,66.3 -22.7,56.5 				"/>
				<polygon class="st2" points="-28.1,72 -34.3,78.1 -27.3,73.2 				"/>
			</g>
		</g>
		<path class="st2" d="M-65.3,7.8c22.9-37.2,53.1-60.1,53.1-60.1S-19.1-15-41.9,22.2C-64.8,59.4-95,82.3-95,82.3
			S-88.1,44.9-65.3,7.8L-65.3,7.8z"/>
		<g>
			<path class="st6" d="M-0.4-85.3c0,0-40.6,35.5-54.7,62.5C-68.9,3.6-58.7,15-47.2,11.9C-37.8,9.4-3-17.7-0.4-85.3L-0.4-85.3z"/>
			<path class="st5" d="M-0.6-81.9c0,0-21.1,50.7-56.8,92.2c0,0,43.4-58.2,56.9-95.5L-0.6-81.9z"/>
		</g>
	</g>
</g>
<path class="st7" d="M976.5,229c-1.5-0.9-3.6-2.2-5.6-4.2c0,0-2.3-2.2-4.1-5c-2.7-4.2-4.8-12.5-4.1-22.8c-1.6,1.6-3.1,3.3-4.7,4.9
	c-0.6-3.3-1.2-6.7-1.8-10.1c-2.9,4.2-5.8,8.5-8.7,12.7c-0.1-3.4-0.2-6.8-0.3-10.2c-2.9,2.5-6,5.1-8.9,7.5c0.7-2.5,1.4-5,2-7.5
	c-4.3,1.2-8,3.5-9.6,6.4c1.6-3.2,3.1-6.3,4.8-9.5c-4.2,2.7-8.4,5.5-12.7,8.2c2-3.3,3.9-6.7,6-10c-5.3,1.3-9.7,4.1-11.7,7.6
	c1.7-2.7,3.2-5.5,4.9-8.2c-6.6,2.5-12.6,5.8-17.6,9.5c1.3-2.7,2.5-5.5,3.9-8.2c-8.1,1.4-15.2,4.9-19.5,9.5c2.5-3.2,5.1-6.3,7.7-9.5
	c-7.9,2.4-14.8,5.9-20.3,10.2c2.3-2.9,4.5-5.9,6.8-8.9c-8.4,1.7-15.8,5.4-20.4,10.1c2-3.2,3.8-6.4,5.8-9.6
	c-7.2,1.6-13.7,4.5-18.5,8.3c3.2-4,6.5-8,9.7-12.1c-8.5,2.3-16,6-21.5,10.8c3.2-4,6.5-8,9.7-12.1c-7.7,2.4-13.9,6.5-17.7,11.4
	c1.6-3.6,3.2-7.2,4.8-10.8c-6.9,3.3-12,8.1-14.4,13.4c1-3.6,1.9-7.2,2.8-10.8c-6.2,3.6-11,8.2-13.6,13.3c0.7-5,1.2-10.1,1.9-15.1
	c-5.7,3.8-9.5,8.7-10.7,13.9c0-5.2,0-10.5-0.1-15.7c-4.7,4.6-8.3,9.8-10.7,15.1c-0.4-5-0.9-10.2-1.3-15.2
	c-2.6,5.5-5.3,10.9-7.8,16.5l-7.7-13.2c-0.3,4.6-0.6,9.2-0.7,13.8c-3.9-3.7-6.3-8.1-6.9-12.6c1.1,5-0.6,10.2-4.8,14.5
	c-0.4-3.8-0.7-7.6-1.1-11.3c-2.7,4-5.4,8-8,12c0.7-3.3,1.4-6.7,2.1-10.1c-4.2,3.8-8.3,7.6-12.5,11.4c0.6-4.1,2.2-8.2,4.9-12
	c-4.3,3.8-8.5,7.5-12.8,11.3c1.7-3.8,3.2-7.6,4.9-11.4c-4.6,3.2-9.1,6.4-13.7,9.4c3.9-4.8,7.8-9.7,11.7-14.5
	c-8.6,4.6-15.9,10.2-21.3,16.5c1.9-5.7,6.1-11.2,11.6-15.8c-9.3,4.6-16.8,10.8-21.5,17.7c0.6-4.6,2.5-9.1,5.7-13.3
	c-5.2,4.9-10.3,9.8-15.5,14.6c1.1-3.9,2-7.9,3.1-11.9c-3.5,3.3-7.2,6.8-10.7,10.1c-0.7-3.8-1.4-7.6-2.1-11.3
	c-3.3,5-9.5,10.8-8.4,16.3c-1-5-2-10.1-3-15.2c-5.5,5.9-7.9,12.9-7.1,19.7c-7.6-5.6-10.2-13.8-6.8-21c-7.5,5.2-10.8,12.8-8.8,19.7
	c-2-6.5-2.8-13-2.3-19.6c-6.2,6.6-10.1,14-11.2,21.7c-4.2-1.9-6.2-5.7-5-8.9c-3,2.7-5.3,5.8-6.6,9.1c-2.3-3.3-4.1-6.8-5.4-10.4
	c-3.4,3.8-6.5,7.7-8.8,11.8c-5.1-1.6-7.8-5.9-5.7-9.4c-4.5,2.2-8.2,5.2-10.7,8.5c-0.1-2.6-0.2-5.1-0.2-7.7c-4.5,2.4-7.6,5.9-8.4,9.6
	l0.5-10.9c-3.8,2.9-6.4,6.6-7.3,10.4c-0.1-3.8-0.3-7.6-0.4-11.4c-2.5,2.7-4.5,5.7-5.7,8.9c-0.1-3.2-0.1-6.4-0.2-9.6
	c-4,1.9-6.5,5.1-6.5,8.3c-0.3-3.4-0.6-6.8-0.9-10.2c-3.7,2.5-6.2,5.7-7.1,9c-2-3.8-2.7-7.9-2.1-12c-3.9,2.8-6.4,6.5-7,10.3
	c-2.4-3.1-3.6-6.7-3.5-10.2c-3.3,3.8-5.5,8-6.3,12.3c-3.5-2.9-4.7-6.8-3.7-10.4c-4,3.2-5.8,7.4-4.8,11.5c-1.4-3-2.8-5.9-4.2-8.9
	c-2.1,2.7-2.7,5.9-1.7,8.9c-2.4-2.7-4.6-5.4-7-8.2c0.3,3.6,0.7,7.2,1.1,10.7l-5.6-7c-1.4,3.1-1.8,6.3-1.2,9.5
	c-1.4-1.7-2.7-3.3-4.1-5c-3.5,1.2-5.8,3.8-5.8,6.3c-1.2-1.7-2.3-3.5-3.5-5.2c-2.4,1.8-3.6,4.2-3.3,6.5c-2.2-1.8-3.3-4.1-3.1-6.4
	c-1.6,1.3-3.2,2.6-4.8,3.9c0.4-1.5,0-3.1-1-4.4c-3.1,1.5-5.3,3.9-5.7,6.4c-0.8-2-1.6-3.9-2.4-5.8c-2.2,1.7-4.4,3.5-6.6,5.2
	c0-1.7,0-3.3,0-5c-3.1,0.8-5.4,3-5,5.1c-1.9-1.6-2.5-3.8-1.8-5.8c-2.6,1-4.7,2.7-5.9,4.5c0-2.3,0-4.7-0.1-7
	c-3.3,0.7-6.1,2.4-7.1,4.6c-0.3-2-0.7-3.8-1-5.8c-2.3,1-3.9,2.7-4.5,4.5c-1.1-2.2-1.5-4.6-1.1-6.9c-3.5,2-6.6,4.3-8.8,6.9
	c0-2.3-0.1-4.6-0.1-7c-2.3,2.3-4.5,4.6-6.8,6.9c1-2.5,1.4-5,1.1-7.5c-2.3,1.5-4.6,2.9-6.9,4.4c1.1-3.4,2.1-6.8,3.2-10.2
	c-4,2.2-7.2,5.1-9,8.3c0.3-3.2,0.6-6.4,0.8-9.6c-3,2.9-6.1,5.9-9,8.9c1.2-3.3,2.2-6.7,3.4-10c-5.5,1.9-9.8,5.1-11.8,8.9
	c0.7-2.7,1.4-5.5,2.1-8.2c-4.3,1.7-7.6,4.5-8.9,7.6c0.6-2.7,1.2-5.6,1.7-8.3c-3,2.2-6.2,4.4-9.2,6.6c1-3.6,1.9-7.3,2.9-10.8
	c-4.9,2.9-8.9,6.3-12.1,10.1c1.9-4.4,3.7-8.9,5.7-13.3c-7.5,2.2-13.5,6.5-16.3,11.5c-0.7-3.8-0.1-7.8,1.8-11.4
	c-6,3.1-11.1,7-14.7,11.4c1-4,1.9-7.9,2.9-12c-4.6,3-7.9,6.7-9.6,10.7c-0.2-3.8,0.1-7.6,0.9-11.4c-4.4,3.4-7.2,7.6-8.1,12
	c-1.9-3.7-3.9-7.6-5.7-11.3c-0.3,3.8-0.6,7.5-0.8,11.4c-4-4.2-6.7-8.9-8-13.8c0.6,5.6,0.5,11.3-0.4,17c-2.4-2.2-3.9-4.8-4.3-7.6
	l-4.5,6.3c-0.6-1.7-1.2-3.4-1.8-5.1c-1.8,1.9-3.6,3.8-5.4,5.7l-0.2-6.4c-2.3,2.3-4.4,4.7-6.7,7c0-2.7,0-5.5,0-8.2l-7.6,7.6
	c1-2.5,1.3-5.1,0.7-7.7c-2.3,1.7-4.4,3.4-6.7,5.1c0-2.7,0-5.5,0-8.2c-3.9,1.2-7.6,3-10.4,5.2l0.9-5.4c-4.4,1.2-8.2,3.4-10.7,6
	c0.6-3,1.3-5.9,1.8-8.9c-4.5,2.2-8.2,5.1-11,8.2c0.8-3.3,1.4-6.7,2.2-10.1c-5.1,1.8-9.5,4.5-12.8,7.6c0.6-2.8,1.1-5.6,1.6-8.5
	c-4.1,1.7-7.7,4-10.6,6.5c1.7-3.1,2.6-6.2,3.1-9.5c-4.9,2.4-8.8,5.8-11,9.5c0.6-3.2,1.2-6.4,1.8-9.6c-3.9,2.5-6.8,5.6-8.2,9
	c0.3-2.7,0.6-5.5,0.9-8.3c-3.2,2.8-5.7,6.1-6.9,9.6c-1.1-3.3-1.4-6.7-0.9-10.1c-0.8,3.1-2.4,6.2-4.7,8.9c-0.6-2.5-2-4.9-4.1-7.1
	c-0.4,3.2-0.8,6.3-1,9.5c-1.8-3.6-4.4-7-7.4-10.1c-2.6,1.9-10.8,5.8-8.8,9.1c-2.8-4.4-3.1-9.5-1-14.1c-6.1,4.4-11.1,9.3-14.8,14.7
	c-0.2-5.1,0.8-10.2,3.1-15.2c-7.3,3.2-12.6,8.3-14.1,13.9c0.7-5.3,1.3-10.6,1.9-15.9c-6.1,3.9-10.7,8.8-13.3,14.1
	c0.6-5,1.1-10.2,1.7-15.2c-5.6,4.6-9.2,10.1-10.5,15.8c-0.8-5.7-0.3-11.4,1.5-17.1c-3.8,5.8-6.1,12.1-6.5,18.4
	c-1.1-5.9-2.3-11.8-3.4-17.7c-3.5,5.8-4.7,12.1-3.6,18.4c-2.5-5.9-5-11.8-7.4-17.6c-0.2,5.9,0,11.8,0.7,17.7
	c-3.4-6.9-6.6-13.8-9.9-20.7c1.7,7.7,1.7,15.5,0.2,23.2c-2.2-2.7-3.6-5.7-4-8.8c-2.3,2.9-4.6,5.9-6.9,8.8c0.3-3.6,0.7-7.2,0.9-10.8
	c-3.8,2.7-6.8,6.1-8.6,9.6c1-3.2,1.2-6.4,0.6-9.6c-4.2,2.7-7.5,6-9.5,9.6c2-3.3,2.9-6.8,2.8-10.3c-5.1,2.5-9.2,5.8-11.8,9.6
	l5.7-12.9c-7.2,3.4-12.9,8.2-16.2,13.6c2-4.6,4.1-9.2,6.1-13.8c-6.7,2.2-11.7,6.5-13,11.3c0.7-4.1,1.2-8.1,1.9-12.1
	c-4.5,2.4-7.5,5.9-8.3,9.7c0.4-3.2,0.7-6.3,1-9.5c-4.9,3.8-8.1,8.5-9.5,13.3c-0.1-3.8-0.1-7.6-0.2-11.3c-2.7,4.3-4.6,8.7-5.5,13.3
	c-0.1-5.5-0.2-10.9-0.4-16.4c-5.8,8.7-8.2,18.4-7.2,27.8l-11.3-52.2c-1,17.2-4.1,34.7-13.9,50.7c-1.3-6.9-1.6-13.8-1.1-20.7
	c-3.7,6.8-7.5,13.7-11.2,20.6c-2.1-13.8,4.7-28.1,18.6-38.7c-14.7,6.5-26.3,15.6-33.9,26.1l0.6,150c14.3,2.5,28.5,4.9,42.9,7.2
	l947-3.6c2.3-39,4.6-77.9,7-116.9c-0.2-9.2-0.8-13.9-1.9-14C978.8,222.4,977.8,224.6,976.5,229z"/>
<path class="st6" d="M963.6,185.1c-8,11.5-11,24.9-8.8,37.8c-3-13.1-6.2-26.1-9.2-39.2c-3.9,13.7-4.3,28-1.1,41.9
	c-3.3-13.4-6.8-26.8-10.1-40.2c0.3,16.7,0.7,33.4,1.1,50.2c-2.3-16.5-6.5-32.8-12.5-48.7c-0.8,14.5-1.6,29-2.4,43.5
	c-2.1-13.8-4-27.5-6.1-41.3c-4.1,15.2-8.2,30.5-12.3,45.7c-1.3-10.9,0.1-21.9,4-32.5c-11.8,11.4-25.5,21.8-40.5,30.8
	c3-7.7,8.3-15,15.1-21.1c-13.8,3.8-25.7,11.2-33.3,20.6c6.9-12.4,19.1-23.1,34.3-30.1c-15.1,2.7-29,9.3-39,18.4
	c6.4-6.7,12.8-13.4,19.2-20.1c-13.8,4.6-25.6,12.3-33.4,22c3.6-11,11.3-21.2,21.9-29.3c-17,7-31.3,17.9-40.2,30.9
	c3.9-10.3,9.6-20.2,16.8-29.4c-13.2,7.8-23.5,18.4-29.5,30.2c1-13.8,7.6-27.4,18.7-38.4c-19,10.1-32.8,25.7-37.6,42.9
	c1.1-13.8,2.2-27.6,3.1-41.4c-6.8,15.2-13.7,30.5-20.5,45.7c1.1-15.5,0.5-31-1.8-46.4c-0.5,18.4-4,36.8-10.5,54.6
	c-1.6-17-3.2-34-4.8-50.9c0.3,14.4-1.9,28.8-6.4,42.8c-1.8-14.8-3.5-29.5-5.2-44.3c-2.5,13.5-4.9,27.1-7.4,40.6
	c-1.2-14.8-2.5-29.5-3.7-44.2c-6.9,16.1-9.6,33.3-7.8,50.2c-5.7-15.1-9.4-30.8-10.9-46.5c-0.3,16.5-0.6,32.9-0.9,49.4
	c-5.5-13.8-10.1-27.8-13.9-42c1.5,15.2,2.9,30.5,4.3,45.7l-15-35.4c1.4,12.8,1.5,25.6,0.1,38.3c-3-8.1-4-16.7-3-25.1
	c-3.5,7.4-7.2,14.8-10.7,22.1c0.2-7.6,2.5-15.2,6.8-22.1c-8.2,7.4-16.2,14.8-24.4,22.1c4.8-8.9,9.7-17.7,14.6-26.6
	c-7.5,7.8-15,15.5-22.5,23.2c4.3-8.8,8.7-17.6,13-26.4c-8.9,7.1-15.9,15.6-20.7,24.6c1.4-10.6,5.7-21,12.6-30.3
	c-10.1,9.3-17.8,20.2-22.4,31.7c-0.1-12,3.6-24,10.8-34.6c-14,11.3-23.1,25.9-25.6,41.3c-3-13.2-2.2-26.9,2.1-39.8
	c-8.9,12.9-13.1,27.6-12.1,42.1c-5.1-13.1-6.4-27.1-3.5-40.6c-5.6,12.3-7.7,25.5-5.8,38.4c-5.7-10.1-9-20.8-9.8-31.7
	c-2.7,12.2-2.3,24.8,1.1,36.9c-5.3-6-9.7-11.4-13.3-18.1c-3.4,7.7-3.3,16.4,0.5,24c-7.2-7.6-13.3-15.7-18.2-24.2
	c1.4,9.8,2.9,19.6,4.2,29.4c-3.8-4.4-7.8-8.8-11.6-13.2c1.7,5.8,2.4,11.7,2.2,17.6c-4.1-3.4-7.5-7.4-9.8-11.6
	c-2.3,4.2-2.3,9.1,0,13.3c-9.8-5.5-22.1-8.6-34.4-8.5c9.3-3,20.5-2.6,29.5,1c-3.9-7.7-17.3-11.6-27.1-8c6.5-7.6,19.2-11.9,31.1-10.5
	c1.5-2.3-2.8-4.3-6.2-4.7c-14.1-1.8-29,0.2-41.4,5.6c7.2-9.4,20.5-16.1,34.8-17.5c-18.8-1.5-38.3,4.4-50.5,15.2
	c5.3-11.8,13.7-22.7,24.4-32.2c-19.9,3.5-37,14.9-44,29.3c-0.9-12.9,4.7-26,15.3-36.1c-21,7.1-36.9,22.4-40.8,39.6
	c-2.9-9.2-4-18.8-3.4-28.2c-7.2,7.9-9.9,18.1-7.4,27.4c-5.3-8.6-8.2-17.9-8.5-27.3c-1.2,8.1-2.5,16.3-3.6,24.4
	c-5-7.5-7.4-16-6.8-24.4c-2.5,8-3.7,16.2-3.8,24.4c-3.9-10.7-5.1-22.1-3.4-33.1c-3,10.8-6,21.6-9,32.4c-1.6-15.2-0.7-30.5,2.8-45.6
	c-10,16.8-20,33.5-30,50.3c7.3-16.4,14.6-32.9,21.7-49.3c-15.7,14.6-31.7,29.6-40.3,47.3c5.1-15.8,11.7-31.3,19.8-46.3
	c-17,9.1-28.5,23.8-30.9,39.4c1.9-15.8,6.6-31.4,14.1-46.3c-15.7,12.7-24.6,30.1-24.3,47.4c-2-17.9-0.9-35.9,3.1-53.6
	c-13.8,16.7-19.7,37-16.2,56.5c-7.2-16.9-10.9-34.6-11.1-52.4c-4.8,17.2-4.5,35.2,0.9,52.4c-9.8-15.2-15.9-31.8-18-48.6
	c-1.2,18.4,2.4,37,10.4,54.4c-6-3.8-10.4-8.9-12.7-14.5c-0.7,4.4-1.3,8.8-1.9,13.3c-3.4-4.5-5.6-9.6-6.2-14.8
	c-1.6,4.2-3.2,8.5-4.8,12.7c-3.3-5.1-5-10.8-4.7-16.4c-2.6,4.2-5.2,8.4-7.8,12.6c0.3-4.9,0.5-9.9,0.8-14.8l-7.7,14
	c0.4-5.2,0.7-10.3,1.1-15.5l-7.9,10.3c0.3-4.7,0.6-9.3,0.9-14c-3.9,3.1-7,6.9-8.7,11.1c-0.6-8.9,3.8-17.9,12-24.3
	c-12.4,5.6-22.9,13.4-30.6,22.7c-1.3-5.6-1.1-11.4,0.4-17c-8.2,2.9-15.5,7.1-21.4,12.2c-0.1-5.1,0.2-9.3,1.6-14.3
	c-4.6,2.6-8.3,6.3-10,10.5c-0.3-3.7-0.6-7.5-0.9-11.2c-3.7,2.5-6.5,6-7.6,9.7c0.3-4,0.7-8,1-12c-3,1.7-5.5,4.1-7.1,6.8
	c0.8-2.7,1.2-5.5,1.3-8.3c-5.6,2.5-9.8,6.7-11.6,11.4c1.1-4.1,2.2-8.3,3.2-12.4c-4.7,2-8.3,5.5-9.6,9.5c0.9-4.3,1.9-8.6,2.8-12.8
	c-6.2,3.2-11.1,7.7-14,12.8c1-5.2,2-10.3,3-15.5c-5.7,4.8-9.7,10.7-11.9,16.9c1.2-5.1,1.9-10.4,2-15.6c-3.9,4.9-6,10.6-5.9,16.4
	c-2.3-9.8-2.7-19.9-1.1-29.8c-4.8,9.5-7,19.8-6.1,29.9c-5.7-12.8-6-26.9-0.9-39.9c-11.2,10.4-11.3,25.1-10.8,38.4
	c-4.9-11.9-6.3-24.7-4-37.1c-5.4,10.6-8.7,21.8-9.6,33.2c-1.1-9.8-2.2-19.5-3.1-29.3c-3.3,10.8-6.6,21.5-9.9,32.2
	c-2-4.8-2.8-9.9-2.3-14.9c-4.1,4.4-7.1,9.5-8.5,14.8c0.5-4,1-8,1.6-12c-5,3.9-8.7,8.9-10.1,14.3c1-4.9,2-9.8,3-14.8
	c-4.6,2.9-8.1,6.8-9.6,11.2c0.9-3.2,1.4-6.5,1.4-9.8c-3.8,3.3-6.9,7-9,11.1c1.4-3.8,2.1-7.8,2.2-11.8c-2.7,1.7-4.6,4.1-5.3,6.6
	c0.5-3.7,1-7.4,1.5-11.1c-4.4,4.3-8.1,9-10.9,14c2-5.8,3.3-11.8,3.9-17.8c-4.8,3.9-8.8,8.5-11.5,13.4c0.8-4.2,1.1-8.4,0.7-12.6
	c-2.4,3.9-4.6,7.9-7,11.8c-0.7-5.7-1.3-11.4-2-17c-3,4.8-3.8,10.3-2.4,15.4l-23.9-29.8c1.7,7.5,3.3,15,5,22.5c-2.5-5-5.1-9.9-8-14.8
	V376h989.9V228C962.3,214.3,960.6,199.4,963.6,185.1L963.6,185.1z"/>
<path class="st8" d="M968.3,358V236.5c-8.9-12-23.1-21.8-39.8-27.2c16.1,11.1,23,27.7,29.2,43.5c-10.6-17.2-30.7-30.9-54.3-37.2
	c19.8,11.7,34.4,28.2,41.2,46.5c-13.2-17.4-34.6-31.2-59.5-38.3c10.1,4.1,17.8,11,23.3,18.5c5.6,7.6,9.1,15.8,12.7,24.1
	c-6.8-13.3-19.2-24.9-34.9-32.7c12.4,10.5,20.8,23.5,24.1,37.3c-5.6-5.5-11.3-11-14.7-17.5c0.5,7.6,2.8,15,6.4,22.1
	c-9.6-10.1-17.7-19.9-23.4-31.7c4.2,13.1,8.6,26.2,12.8,39.4c-8.1-10.8-16.3-21.9-19.1-34.1c0.4,10.7,0.2,21.3-0.6,31.9
	c-3.4-4.2-5.4-9.1-5.6-14.1c-4.4,4.6-8.9,9.2-13.4,13.8c1.3-5.1,4.3-10,8.6-14.1c-8.7,3-16.8,6.6-25,10.3c7-5.6,13.2-11.8,18.6-18.3
	c-11.2,3.4-21.6,8.2-31,13.9c9-8.1,19.6-15.1,30.1-22.1c-14.3,0.6-28.1,6-37,14.5c7.5-8.6,16.3-16.6,26.3-23.6
	c-14.6,2.8-27.7,9.7-36.3,19.1c6.1-9.6,14.4-18.5,24.4-26c-6.7,2.3-13.4,4.6-19.2,7.9c-5.8,3.3-10.7,7.8-12.6,13.2
	c3.1-11.9,11.1-23.1,22.7-31.6c-7.1,3-14.2,6-20.3,10.2c-6,4.1-10.8,9.5-12,15.6c-0.1-7.2,0.9-14.4,2.9-21.4c0.8-2.9,2.1-6,4.9-7.8
	c-14,7.3-21.6,21-18.3,33.6c-3-9.3-5.3-18.6-7.1-28.1c-1.9,10.6-0.5,21.6,4.1,31.7c-6.1-8.8-12.3-17.6-18.4-26.5
	c3.3,10.2,6.8,20.4,10.1,30.6c-5.8-8.5-11.6-17-17.4-25.5c3.8,8.9,7.1,17.9,9.5,27.1c-7-8.9-14.6-17.7-22.5-26.1
	c4.6,8.3,9.2,16.5,13.9,24.8c-9-8.6-17.9-17.1-26.9-25.7l14.6,26l-33.8-33.4c5.9,12.7,10.3,25.9,13.2,39.2
	c-7.9-12.4-15.2-25.1-22.1-37.9c3.3,13,6.6,26,9.9,38.9c-5.9-9-11-18.4-15.2-27.9c2.1,10.5,3.5,21,4.4,31.6
	c-3.1-5.4-5.9-11-8.1-16.7c-1.1,5.3-2.3,10.6-3.3,15.9c-1-3.2-1.6-6.4-1.6-9.7c-3,3.8-6.2,7.5-8.7,11.5c0.8-5,1.9-9.9,3.4-14.8
	c-2.9,2-5.2,4.4-6.8,7c0.8-6.8,3-13.4,6.6-19.7c-4.5,4.8-9.1,9.6-13.7,14.5c-2.3-7.4-1.6-15.2,1.9-22.3
	c-6.4,7.4-10.3,16.1-11.3,24.9c-7.3-8.4-9.5-19.1-6.3-28.8c-5.7,9.8-7.5,20.9-5.1,31.4c-5.5-7.7-8.9-16.3-9.8-25
	c-2,9.7-2.3,19.6-1,29.3c-5.6-6.6-9.8-13.8-12.6-21.3c-0.6,7.1-1.1,14.3-1.7,21.4c-2.5-3.3-4-6.9-4.4-10.7l-5.8,13.3
	c-1.7-3.2-2.2-6.7-1.5-10c-3.1,3.8-6.2,7.5-9.3,11.3c0-3.3,0.7-6.6,2.1-9.8c-4.7,2.8-8.8,6.4-11.5,10.4c0.4-3.3,1.4-6.5,2.8-9.7
	c-5.1,3.1-9,7.2-11.3,11.8c-0.4-3.8-0.1-7.7,0.7-11.4c-3.9,2.7-6.6,6.4-7.7,10.4c-1.2-3.8-1.7-7.7-1.5-11.5c-3.1,2.9-4.9,6.6-5,10.4
	c-1.1-3.4-1.7-6.9-1.7-10.3c-2.9,3.1-4.7,6.7-5.4,10.4c-1.8-3.4-3-7-3.3-10.7c-2.2,3.4-3.1,7.3-3,11.1c-2.3-5-3.5-10.2-4-15.5
	c-2.6,5.2-4.1,10.7-4.4,16.3c-1.1-3.5-2.1-7-3.1-10.4c-2.5,3.8-4.4,7.8-5.9,11.9c-0.3-3.1-0.6-6.2-0.8-9.4c-4,3.2-7.3,7-9.5,11.1
	c1.4-4.5,2.9-8.9,4.2-13.4c-4.9,3.2-9.8,6.4-14.8,9.6c4.7-6.1,11.3-11.4,19.2-15.2c-9-1.1-18.5,1.7-24.1,7.1
	c3.1-7.3,10.7-13.4,20.2-16.3c-14.6,1.4-30.4,3.6-39.5,12.2c4.7-7,11.2-13.3,19.2-18.4c-12.3,2.7-26.2,6.6-30.5,15.6
	c-0.2-5.9,1.1-11.9,3.5-17.4c-7.4,4.5-12,11.5-12.3,18.6c-0.2-6.9,0.8-13.9,2.9-20.6c-5.4,5.8-9.2,12.3-11.4,19.1l-0.9-13.3
	c-2.6,3.5-4.4,7.2-5.6,11.1c0.3-4.3,0.7-8.6,1-12.9c-4.7,3.8-8,8.6-9.3,13.6c1.2-5.6,2.8-11.2,4.8-16.6c-3.9,2.9-7.4,6.1-10.3,9.6
	c0.5-5.5,1-11,1.6-16.5c-4.6,5.9-8.5,12.2-11.4,18.6c1.3-9.3,3.8-18.6,7.7-27.5c-9.7,8.1-15.7,18.8-16.6,29.8
	c-1.8-3.8-2.1-6.2-2.2-10c-2.8,3.2-5.2,6.8-7.8,10.1c0.2-5.1,1.6-10.1,3.9-14.9c-3.2,4.3-6.6,8.7-9.8,13c-1.4,1.9-3.6,4-6.5,3.6
	c1-6.4,3-12.8,6-18.8c-6.6,4.7-11.8,10.4-15.2,16.8c0.3-6.1,1.4-12.2,3.1-18.1c-4.8,4.4-8.3,9.5-10,15c0.6-7,1.2-14.1,1.8-21.1
	c-3.5,5.6-6,11.6-7.2,17.8c-3-7.4-4-15.2-3.2-22.9c-6,8.2-8.8,17.7-7.9,27.1c-4.6-7.5-7.2-15.8-7.5-24.1c-1.4,7.3-1.7,14.8-0.8,22.2
	c-4.7-8.1-8.3-16.5-10.6-25.2c0.7,9.3,2.8,18.5,6.1,27.4c-9.9-11.8-17.8-24.6-23.2-38c3.1,13.5,6.3,27,9.3,40.5
	c-6.2-6.1-11.4-12.9-15.4-20c0,6.2,0,12.3,0,18.5c-5.4-4.3-9.1-9.8-10.5-15.7c-2,5.8-2.8,11.9-2.2,17.9c-4.5-5.2-7.5-11.2-8.3-17.4
	c-1.2,5.8-2.4,11.6-3.5,17.4c-3.5-6.3-5.1-13.2-4.5-20l-7.8,18.6c-1.4-6.6-1-13.3,1.2-19.8c-5.9,6.5-12.3,12.7-19.2,18.7
	c3-7.8,6.8-15.4,11.3-22.7c-10.5,8-20.2,16.6-28.8,25.8c6.4-9.5,12.8-19,19.3-28.4c-11.2,7.6-20.2,17.1-26.3,27.5
	c3.5-11,8.3-21.8,13.9-32.2c-9.6,8.2-17.8,17.3-24.5,27c4.1-10.3,8.3-20.5,12.4-30.8c-9.7,8.3-16.4,18.5-19.4,29.3
	c0.4-6.4,0.8-12.9,1.3-19.3c0.4-5.4,0.7-10.9,2.6-16.2c-8.8,10.7-12.8,23.6-11.2,36.2c-4.2-13.4-6.3-27.2-6.2-40.9
	c-4.3,14.5-4.2,29.8,0.3,44.3c-6-13.4-11.1-27.1-15.1-41c-1.5,12.8-0.9,25.8,1.6,38.5c-4.2-6.1-7.4-12.6-9.5-19.2
	c-1.3,6.3-2.6,12.5-3.8,18.8c-2.4-6.4-3.1-13.1-2.4-19.6c-4.5,5.9-6.8,12.8-6.5,19.6c-2.5-9.6-4.9-20.6-2.2-30.3
	c-4.6,2.6-8.3,6.3-10,10.5c-0.3-3.7-0.6-7.5-0.9-11.2c-3.7,2.5-6.5,6-7.6,9.7c0.3-4,0.7-8,1-12c-3.1,1.7-5.5,4.1-7.1,6.8
	c0.8-2.7,1.2-5.5,1.3-8.3c-5.6,2.5-9.8,6.7-11.6,11.4c1.1-4.1,2.2-8.3,3.2-12.4c-4.7,2-8.3,5.5-9.6,9.5c0.9-4.3,1.9-8.6,2.8-12.8
	c-6.2,3.2-11.1,7.7-14,12.8c1-5.2,2-10.3,3-15.5c-5.7,4.8-9.8,10.7-11.9,16.9c1.2-5.1,1.9-10.4,2-15.6c-3.9,4.9-6,10.6-5.9,16.4
	c-2.3-9.8-2.7-19.9-1.1-29.8c-4.9,9.6-6.5,19.5-6.2,29.7c-0.6-1.6-6.9-9.3-5.4-10.6c-5.6,4.8-10.4,10.1-14.3,15.8
	c1-7.5,3.1-14.9,6.3-22.1c-7.8,4.9-13.7,11.4-16.9,18.7c2.1-9.9,5.6-19.5,10.5-28.8c-10.1,8-20.8,16.8-22.5,27.8
	c0-12.2,3.3-24.4,9.8-35.5c-4.6,4.7-9.3,9.4-12.6,14.8c-3.2,5.3-4.9,11.4-3.3,17.1c-4-10.2-6.4-20.8-7-31.4c-5.2,10.7-4,22.6-2.8,34
	c-3.8-10-8.6-19.8-14-29.3c2.7,11.3,4.3,22.7,5,34.1c-4.1-8.7-8.3-17.3-12.3-26c2.8,8.9,3.4,18.3,2,27.4l-8.4-19.2
	c-0.8,6.4-1,12.7-0.6,19.1c-11-12.8-17.4-27.9-18.4-43.1c-2.3,5.2-3.8,10.5-4.8,15.9c-3.6-10.8-4.5-22.1-2.7-33.1
	c-6.5,8.2-10.7,17.4-12.5,26.9c-0.3-0.5-0.7-1-1-1.5v160L968.3,358L968.3,358z"/>
</svg>
