<?xml version="1.0" encoding="UTF-8"?>
<svg id="Layer_1" data-name="Layer 1" xmlns="http://www.w3.org/2000/svg" viewBox="0 0 965.6 210">
  <defs>
    <style>
      .cls-1 {
        fill: #18a151;
      }

      .cls-2 {
        fill: #59bb82;
      }

      .cls-3 {
        fill: #138242;
      }

      .cls-4 {
        fill: #4dbc4d;
      }

      .cls-5 {
        fill: #206445;
      }

      .cls-6 {
        fill: #1fa167;
      }

      .cls-7 {
        fill: #297d57;
      }

      .cls-8 {
        fill: #70cf54;
      }

      .cls-9 {
        fill: #22a358;
      }
    </style>
  </defs>
  <g>
    <path class="cls-2" d="m771.15,79.24c-11.34,0-22.7-.21-34.09-.64-82.84-3.12-167.13-17.52-250.51-42.81C344.58-7.27,253.17-67.85,252.26-68.45l2.37-3.55c.9.6,91.88,60.89,233.3,103.75,130.44,39.54,331.7,71.92,549.77,1.66l1.31,4.06c-86.14,27.76-176.1,41.77-267.86,41.77Z"/>
    <path class="cls-9" d="m674.1,54.19c-73.87,0-148.38-7.57-221.87-22.55C313.41,3.34,225.18-42.28,224.3-42.74l1.98-3.78c.87.45,88.68,45.84,226.96,74.01,127.58,25.99,325.45,42.21,543.6-28.08l1.31,4.06c-96.75,31.17-197.63,48.14-299.84,50.44-8.06.18-16.13.27-24.21.27Z"/>
  </g>
  <g>
    <path class="cls-5" d="m935.73,10.3s-37.69,107.75-84.95,137.16c0,0,42.85-28.88,80.37-136.87l4.58-.29Z"/>
    <path class="cls-5" d="m933.43,17.7s-27.17,70.99-15.78,106.27c0,0-9.37-33.11,17.99-104.15l-2.21-2.12Z"/>
    <g>
      <g>
        <path class="cls-5" d="m954.66-23.16s5.89,53.56,20.03,80.58c13.82,26.41,28.94,24.61,32.97,13.33,3.26-9.12.95-53.17-53-93.9Z"/>
        <g>
          <path class="cls-3" d="m957.32-21.12s29.56,46.32,43.16,99.27c0,0-22.89-68.91-45.81-101.3l2.65,2.04Z"/>
          <polygon class="cls-3" points="963.96 -8.17 961.63 3.01 964.42 -7.34 963.96 -8.17"/>
        </g>
      </g>
      <g>
        <path class="cls-5" d="m917.56-39.96l-.55,7.72c-17.55,11.19-35.43,19.35-52.35,25.27l1.85-13.62-8.43,15.83c-47.05,15.16-85.08,13.47-85.08,13.47,9.33-12.09,19.13-22.31,29.15-30.96l9.56,3.78-6.08-6.7c34.64-28.52,71.5-38.66,100.21-41.55l7.02,6.48-3.24-6.82c28.24-2.29,47.7,2.3,47.7,2.3-11.89,12.07-24.5,22.17-37.33,30.61l-2.42-5.8Z"/>
        <path class="cls-5" d="m952.64-63.76s-114.82,24.44-175.96,70.51c0,0,48.51-36.61,175.96-70.51Z"/>
      </g>
      <g>
        <path class="cls-5" d="m963.07-20.83l7.04,3.2c4.39,20.35,5.83,39.94,5.51,57.87l-12.13-6.47,11.92,13.4c-2.13,49.39-16.93,84.46-16.93,84.46-8.1-12.95-14.28-25.69-18.91-38.09l6.86-7.65-8.4,3.37c-14.71-42.39-11.42-80.47-4.15-108.4l8.51-4.33-7.53.67c7.67-27.27,18.73-43.93,18.73-43.93,7.19,15.34,12.27,30.68,15.74,45.63l-6.28.25Z"/>
        <g>
          <path class="cls-7" d="m952.95-61.99s-16.97,116.16,4.99,189.5c0,0-17.47-58.21-4.99-189.5Z"/>
          <polygon class="cls-7" points="948.91 -.31 964.75 25.53 948.24 1.71 948.91 -.31"/>
          <polygon class="cls-7" points="947.81 18.51 932.48 34.29 947.35 20.67 947.81 18.51"/>
          <polygon class="cls-7" points="948.24 51.08 961.31 74.73 948.02 48.54 948.24 51.08"/>
          <polygon class="cls-7" points="948.44 73.87 940.45 83.33 949.19 74.82 948.44 73.87"/>
          <polygon class="cls-7" points="951.83 92.47 957.59 100.58 950.67 93.39 951.83 92.47"/>
        </g>
      </g>
      <g>
        <path class="cls-1" d="m952.27-69.97s59.73,47.22,81.48,84.41c21.26,36.36,7.77,53.11-8.76,49.48-13.37-2.94-64.4-38.74-72.72-133.89Z"/>
        <path class="cls-3" d="m952.73-65.27s33.3,70.14,86.52,126.14c0,0-65.37-79.09-86.97-130.84l.45,4.7Z"/>
      </g>
      <g>
        <path class="cls-1" d="m923.03-26.8l-6.46-.97c-12.82,14.08-23.21,29.03-31.58,43.53l11.58.89-14.75,4.76c-22.17,40.57-28.62,76.03-28.62,76.03,11.86-6.31,22.29-13.41,31.47-21.01l-1.14-9.55,4.26,6.9c30.6-26.55,46.53-58.66,54.83-84.63l-3.88-7.72,4.94,4.3c7.7-25.65,7.94-44.51,7.94-44.51-12.38,8.68-23.28,18.4-32.86,28.63l4.27,3.34Z"/>
        <g>
          <path class="cls-5" d="m949.83-54.66s-43.78,101.4-94.26,149.08c0,0,40.1-37.82,94.26-149.08Z"/>
          <polygon class="cls-5" points="923.1 -3.31 899.65 9.44 922.6 -1.35 923.1 -3.31"/>
          <polygon class="cls-5" points="914.86 12.3 918.02 32.59 914.15 14.25 914.86 12.3"/>
          <polygon class="cls-5" points="898.95 38.13 878.49 50.52 900.33 36.21 898.95 38.13"/>
          <polygon class="cls-5" points="887.9 56.27 888.96 67.83 886.92 56.65 887.9 56.27"/>
          <polygon class="cls-5" points="876.62 69.44 868.7 73.05 876.99 70.77 876.62 69.44"/>
        </g>
      </g>
      <path class="cls-5" d="m863.41-3.6c34.11-27.23,70.3-38.58,70.3-38.58,0,0-19.1,32.78-53.2,60.01-34.11,27.23-70.31,38.58-70.31,38.58,0,0,19.1-32.78,53.2-60.01Z"/>
      <g>
        <path class="cls-4" d="m955.93-69.2s-50.18,19.63-72.59,40.31c-21.9,20.22-16.23,34.35-4.29,35.3,9.65.77,51.59-12.93,76.87-75.61Z"/>
        <path class="cls-1" d="m954.65-66.11s-37.03,40.6-84.61,67.51c0,0,60.58-40.04,85.89-70.6l-1.28,3.09Z"/>
      </g>
    </g>
  </g>
  <g>
    <path class="cls-8" d="m999.65,174.8c-.59,3.05-1.74,6.63-5.62,7.72-2.61.73-5.31-1.34-5.6-3.05-1.61,1.91-3.23,3.81-4.84,5.72-.61-3.92-1.21-7.83-1.82-11.75-2.96,4.93-5.91,9.85-8.87,14.78-.11-3.98-.23-7.96-.34-11.94-3.04,2.94-6.08,5.87-9.11,8.81.71-2.92,1.43-5.85,2.14-8.77-4.43,1.35-8.07,4.08-9.83,7.39,1.62-3.72,3.24-7.43,4.86-11.15-4.3,3.2-8.61,6.4-12.91,9.6,2.02-3.91,4.05-7.81,6.07-11.72-5.45,1.48-9.93,4.8-11.93,8.85,1.65-3.2,3.31-6.4,4.97-9.59-6.73,2.92-12.8,6.68-17.89,11.07,1.32-3.22,2.64-6.43,3.95-9.65-8.21,1.65-15.5,5.71-19.91,11.11,2.62-3.7,5.25-7.4,7.87-11.11-7.96,2.77-15.09,6.85-20.74,11.86,2.32-3.45,4.63-6.9,6.95-10.35-8.55,1.92-16.1,6.21-20.83,11.84,1.96-3.73,3.92-7.46,5.88-11.19-7.34,1.82-13.95,5.24-18.78,9.73,3.29-4.68,6.59-9.37,9.88-14.05-8.65,2.6-16.3,6.99-21.87,12.54,3.31-4.68,6.61-9.37,9.92-14.05-7.78,2.77-14.23,7.53-18.01,13.29,1.64-4.19,3.27-8.39,4.91-12.58-6.98,3.83-12.22,9.38-14.69,15.56.98-4.19,1.95-8.38,2.93-12.57-6.34,4.16-11.17,9.57-13.88,15.52.66-5.91,1.32-11.81,1.97-17.72-5.83,4.37-9.72,10.15-10.92,16.24,0-6.15-.02-12.3-.02-18.45-4.81,5.45-8.5,11.45-10.9,17.72-.43-5.93-.86-11.85-1.3-17.78-2.68,6.42-5.36,12.84-8.04,19.26l-7.75-15.46c-.27,5.4-.55,10.79-.82,16.19-3.97-4.37-6.4-9.5-6.99-14.75,1.05,5.85-.71,11.96-4.88,16.99-.36-4.44-.72-8.88-1.08-13.32-2.75,4.66-5.5,9.32-8.24,13.98.74-3.92,1.47-7.85,2.21-11.77-4.27,4.43-8.54,8.86-12.81,13.29.59-4.84,2.28-9.6,4.97-14.02-4.36,4.42-8.71,8.83-13.07,13.25,1.65-4.43,3.3-8.86,4.96-13.28-4.65,3.67-9.3,7.35-13.96,11.02,4-5.65,8-11.29,12.01-16.94-8.77,5.34-16.19,11.9-21.74,19.24,2.05-6.71,6.15-13.07,11.91-18.46-9.48,5.38-17.09,12.56-21.9,20.67.59-5.41,2.56-10.74,5.79-15.62-5.26,5.68-10.52,11.36-15.78,17.04,1.06-4.64,2.12-9.28,3.17-13.92-3.64,3.94-7.28,7.88-10.92,11.81-.7-4.45-1.4-8.89-2.1-13.34-3.39,5.75-9.72,12.56-8.61,19.15-1-5.92-1.99-11.84-2.99-17.76-5.55,6.89-8.14,15.07-7.32,23.07-7.68-6.62-10.35-16.25-6.81-24.58-7.6,6.05-11.03,14.85-8.97,22.98-2.05-7.56-2.83-15.31-2.32-23.01-6.32,7.68-10.29,16.42-11.54,25.37-4.26-2.32-6.34-6.66-5-10.46-3.09,3.17-5.36,6.79-6.66,10.58-2.32-3.91-4.14-7.99-5.42-12.16-3.55,4.38-6.58,8.98-9.03,13.75-5.24-1.87-7.91-6.96-5.75-10.97-4.62,2.6-8.4,6.01-10.94,9.88-.08-3.01-.16-6.02-.25-9.03-4.58,2.81-7.7,6.89-8.58,11.25l.63-12.82c-3.9,3.43-6.52,7.66-7.49,12.09-.13-4.46-.27-8.91-.4-13.37-2.64,3.21-4.6,6.73-5.77,10.39-.06-3.73-.13-7.47-.19-11.2-4.11,2.2-6.64,5.94-6.57,9.7-.3-3.98-.61-7.97-.91-11.95-3.75,2.86-6.31,6.56-7.28,10.49-2.01-4.51-2.72-9.33-2.07-14.05-4,3.3-6.55,7.55-7.15,11.96-2.41-3.74-3.63-7.89-3.54-12.04-3.42,4.43-5.64,9.36-6.49,14.43-3.47-3.44-4.84-8.01-3.66-12.22-4.07,3.68-5.89,8.67-4.89,13.37-1.4-3.46-2.81-6.92-4.21-10.38-2.12,3.19-2.75,6.9-1.77,10.38-2.36-3.19-4.73-6.39-7.09-9.58.35,4.19.71,8.38,1.06,12.57l-5.71-8.17c-1.45,3.59-1.88,7.4-1.26,11.12-1.36-1.97-2.73-3.94-4.09-5.91-3.58,1.39-5.94,4.35-5.88,7.34-1.17-2.03-2.34-4.07-3.51-6.1-2.42,2.07-3.67,4.88-3.39,7.61-2.16-2.12-3.28-4.82-3.09-7.48-1.64,1.5-3.28,3-4.92,4.5.36-1.77.01-3.62-1-5.25-3.24,1.72-5.4,4.52-5.76,7.47-.8-2.28-1.6-4.56-2.4-6.84-2.25,2.03-4.49,4.06-6.74,6.09.01-1.96.02-3.92.03-5.89-3.23.85-5.45,3.46-5.1,5.99-1.88-1.93-2.55-4.47-1.79-6.78-2.64,1.25-4.76,3.1-6,5.23-.02-2.74-.04-5.48-.06-8.22-3.38.76-6.17,2.84-7.18,5.35-.33-2.26-.66-4.53-1-6.79-2.34,1.24-4.02,3.15-4.6,5.24-1.11-2.61-1.48-5.39-1.08-8.12-3.61,2.27-6.66,5.03-8.98,8.1-.03-2.72-.06-5.44-.09-8.16-2.31,2.71-4.61,5.42-6.92,8.13,1.04-2.87,1.4-5.87,1.06-8.82-2.35,1.72-4.69,3.44-7.04,5.15,1.11-3.96,2.23-7.92,3.34-11.89-4.1,2.6-7.31,5.97-9.25,9.7.29-3.74.59-7.48.88-11.22-3.07,3.45-6.15,6.9-9.22,10.35,1.16-3.91,2.33-7.82,3.49-11.72-5.58,2.16-9.98,5.94-12.03,10.36.73-3.21,1.45-6.41,2.18-9.62-4.36,2.01-7.67,5.24-9.11,8.89.58-3.25,1.16-6.5,1.75-9.74-3.14,2.55-6.29,5.1-9.43,7.66,1.01-4.23,2.02-8.47,3.02-12.7-4.97,3.39-9.15,7.41-12.33,11.83,1.92-5.2,3.84-10.4,5.75-15.59-7.63,2.58-13.75,7.53-16.57,13.4-.74-4.48-.09-9.08,1.88-13.35-6.13,3.64-11.26,8.2-15,13.32,1.01-4.67,2.02-9.33,3.03-14-4.66,3.46-8.09,7.82-9.83,12.54-.25-4.43.09-8.88,1.01-13.27-4.51,3.96-7.44,8.89-8.33,14.04-1.93-4.44-3.86-8.88-5.79-13.32-.31,4.42-.63,8.84-.94,13.26-4.05-4.94-6.81-10.47-8.07-16.18.64,6.63.47,13.31-.52,19.92-2.41-2.63-3.9-5.72-4.26-8.89l-4.57,7.44c-.61-2-1.21-3.99-1.82-5.99-1.84,2.22-3.68,4.44-5.52,6.66l-.17-7.46c-2.26,2.73-4.52,5.47-6.78,8.2-.02-3.21-.03-6.41-.05-9.62l-7.78,8.93c1.02-2.92,1.27-5.98.74-8.96-2.28,1.99-4.55,3.97-6.83,5.96,0-3.22-.01-6.44-.02-9.65-4.05,1.44-7.7,3.5-10.63,6.03l.88-6.3c-4.5,1.43-8.37,3.93-10.88,7.04.64-3.48,1.28-6.95,1.92-10.43-4.57,2.6-8.4,5.9-11.2,9.64.77-3.93,1.53-7.87,2.3-11.8-5.19,2.15-9.68,5.23-12.97,8.9.57-3.29,1.13-6.58,1.7-9.87-4.17,2.04-7.83,4.63-10.77,7.63,1.66-3.58,2.72-7.32,3.15-11.09-5.04,2.82-8.98,6.71-11.25,11.08.62-3.74,1.24-7.48,1.86-11.21-3.98,2.87-6.92,6.52-8.45,10.48.29-3.23.58-6.45.87-9.68-3.33,3.32-5.77,7.14-7.12,11.16-1.08-3.88-1.39-7.88-.94-11.83-.83,3.64-2.46,7.18-4.82,10.43-.6-2.94-2.01-5.78-4.12-8.3-.38,3.72-.75,7.44-1.13,11.15-1.81-4.18-4.35-8.19-7.54-11.89-2.71,2.25-11.01,6.78-9,10.6-2.75-5.22-3.11-11.12-1.01-16.5-6.18,5.07-11.29,10.86-15.08,17.09-.18-5.99.91-12.01,3.21-17.76-7.45,3.7-12.76,9.69-14.42,16.23.68-6.22,1.36-12.43,2.03-18.65-6.19,4.6-10.89,10.31-13.58,16.5.6-5.95,1.2-11.89,1.8-17.84-5.66,5.35-9.4,11.81-10.73,18.54-.83-6.67-.27-13.43,1.65-19.97-3.93,6.79-6.21,14.11-6.71,21.49-1.13-6.92-2.26-13.84-3.39-20.75-3.57,6.79-4.83,14.23-3.65,21.46-2.49-6.89-4.97-13.79-7.46-20.68-.19,6.89,0,13.79.57,20.68-3.35-8.09-6.7-16.18-10.05-24.27,1.69,9.01,1.73,18.19.1,27.2-2.24-3.2-3.62-6.73-4.05-10.32-2.33,3.44-4.66,6.88-6.99,10.32.34-4.22.69-8.43,1.03-12.65-3.89,3.25-6.91,7.08-8.81,11.2,1.04-3.69,1.25-7.51.63-11.26-4.29,3.15-7.61,7.03-9.65,11.24,2.01-3.8,3-7.89,2.9-11.96-5.23,2.87-9.4,6.78-11.96,11.21l5.8-15.06c-7.3,4.04-13.07,9.59-16.46,15.86,2.1-5.39,4.19-10.79,6.29-16.18-6.82,2.59-11.88,7.6-13.31,13.19.66-4.75,1.33-9.5,1.99-14.25-4.59,2.81-7.61,6.94-8.49,11.3.37-3.71.74-7.42,1.11-11.13-4.95,4.44-8.32,9.86-9.65,15.54-.06-4.45-.12-8.89-.19-13.34-2.81,4.97-4.71,10.22-5.62,15.57-.1-6.41-.19-12.83-.29-19.24-5.85,10.22-8.4,21.48-7.36,32.56l-10.79-61.58c-1.09,20.17-4.26,40.57-14.29,59.34-1.27-8.07-1.61-16.22-1.01-24.33-3.83,8.02-7.65,16.03-11.48,24.05-2.1-16.16,4.93-32.87,19.05-45.27-15.03,7.54-26.84,18.24-34.62,30.36v175.78c14.51,2.97,29.05,5.87,43.65,8.56h962.76v-186.38c-.11-.43-.22-.87-.34-1.3Z"/>
    <path class="cls-4" d="m995.18,185.14c-8.07,11.52-11.23,24.91-8.94,37.78-3.14-13.06-6.27-26.12-9.41-39.18-4.02,13.73-4.38,28.04-1.1,41.88-3.43-13.41-6.86-26.82-10.3-40.23.35,16.72.71,33.44,1.06,50.16-2.35-16.46-6.58-32.77-12.65-48.7-.81,14.5-1.63,28.99-2.44,43.49-2.07-13.77-4.13-27.54-6.2-41.31-4.18,15.25-8.35,30.49-12.53,45.74-1.29-10.89.12-21.95,4.14-32.47-12.03,11.41-25.87,21.77-41.16,30.78,3.08-7.73,8.36-14.98,15.4-21.12-13.98,3.78-26.13,11.17-33.86,20.61,7.05-12.38,19.44-23.05,34.9-30.05-15.42,2.73-29.52,9.32-39.66,18.35,6.51-6.69,13.03-13.38,19.54-20.06-13.98,4.56-26.02,12.34-34.04,21.98,3.74-11,11.53-21.22,22.3-29.27-17.34,7.01-31.77,17.91-40.9,30.9,4-10.29,9.75-20.2,17.08-29.42-13.42,7.8-23.91,18.35-30,30.17,1.03-13.81,7.72-27.36,18.96-38.39-19.34,10.1-33.28,25.74-38.22,42.9,1.08-13.79,2.16-27.59,3.24-41.38-6.94,15.24-13.87,30.47-20.81,45.71,1.1-15.48.49-31.03-1.83-46.44-.52,18.44-4.12,36.84-10.69,54.63-1.63-16.98-3.27-33.97-4.9-50.95.28,14.4-1.92,28.83-6.53,42.82-1.78-14.76-3.56-29.52-5.34-44.28-2.49,13.52-4.98,27.05-7.47,40.57-1.25-14.75-2.5-29.49-3.75-44.24-7.04,16.11-9.76,33.26-7.93,50.15-5.83-15.15-9.57-30.75-11.13-46.47-.29,16.48-.58,32.95-.87,49.43-5.56-13.82-10.26-27.83-14.08-41.97,1.46,15.24,2.91,30.48,4.37,45.72l-15.25-35.45c1.43,12.75,1.47,25.59.11,38.34-3.08-8.13-4.1-16.68-2.98-25.09-3.64,7.38-7.28,14.76-10.92,22.14.16-7.63,2.54-15.24,6.93-22.14-8.28,7.38-16.55,14.76-24.83,22.14,4.94-8.87,9.88-17.74,14.81-26.62-7.63,7.75-15.25,15.5-22.88,23.25,4.42-8.81,8.83-17.61,13.25-26.42-9.01,7.14-16.19,15.55-21.02,24.64,1.44-10.6,5.85-20.98,12.85-30.27-10.34,9.32-18.15,20.17-22.85,31.73-.14-11.97,3.67-23.96,11-34.63-14.25,11.26-23.5,25.94-26.01,41.27-2.98-13.2-2.24-26.85,2.15-39.83-9.05,12.89-13.35,27.59-12.31,42.1-5.25-13.13-6.51-27.13-3.64-40.65-5.7,12.27-7.75,25.47-5.95,38.38-5.75-10.05-9.15-20.83-10.01-31.73-2.66,12.21-2.3,24.78,1.07,36.89-5.42-6.01-9.9-11.36-13.45-18.06-3.53,7.72-3.36,16.35.49,23.99-7.3-7.55-13.52-15.67-18.54-24.19,1.44,9.8,2.88,19.59,4.32,29.39-3.94-4.4-7.87-8.8-11.81-13.2,1.66,5.76,2.4,11.66,2.22,17.55-4.22-3.4-7.63-7.35-10.03-11.62-2.35,4.19-2.33,9.08.03,13.27-10.03-5.53-22.51-8.56-35-8.49,9.52-3,20.85-2.63,29.98.97-4-7.69-17.63-11.63-27.59-7.98,6.64-7.6,19.55-11.88,31.6-10.47,1.49-2.33-2.84-4.3-6.27-4.74-14.35-1.83-29.53.2-42.11,5.63,7.34-9.45,20.84-16.13,35.42-17.51-19.06-1.52-38.92,4.38-51.29,15.25,5.44-11.75,13.9-22.73,24.79-32.16-20.18,3.48-37.56,14.89-44.67,29.34-.91-12.91,4.76-26.02,15.63-36.12-21.42,7.1-37.5,22.45-41.5,39.61-2.9-9.23-4.09-18.76-3.53-28.22-7.35,7.89-10.13,18.05-7.51,27.44-5.36-8.55-8.3-17.92-8.57-27.34-1.24,8.15-2.47,16.3-3.71,24.45-5.11-7.5-7.51-16.02-6.87-24.41-2.5,7.98-3.8,16.17-3.87,24.36-4.01-10.74-5.2-22.06-3.5-33.13-3.07,10.8-6.14,21.59-9.21,32.39-1.61-15.2-.65-30.54,2.84-45.57-10.16,16.77-20.32,33.54-30.49,50.31,7.37-16.43,14.75-32.85,22.12-49.28-15.97,14.65-32.2,29.65-41.02,47.32,5.16-15.77,11.88-31.27,20.1-46.31-17.31,9.06-28.97,23.79-31.44,39.39,1.89-15.81,6.67-31.43,14.26-46.27-15.99,12.69-25.05,30.05-24.74,47.43-1.98-17.86-.91-35.9,3.18-53.56-14.04,16.67-19.97,37.02-16.46,56.51-7.31-16.91-11.14-34.64-11.29-52.4-4.93,17.21-4.64,35.23.85,52.35-9.96-15.21-16.18-31.77-18.26-48.62-1.25,18.41,2.39,37,10.64,54.38-6.06-3.8-10.61-8.91-12.92-14.54-.65,4.42-1.29,8.84-1.94,13.26-3.51-4.51-5.68-9.59-6.33-14.78-1.64,4.23-3.29,8.46-4.93,12.68-3.42-5.06-5.09-10.76-4.82-16.42-2.64,4.21-5.29,8.42-7.93,12.63.26-4.94.52-9.88.77-14.83l-7.84,14.04c.36-5.16.73-10.33,1.09-15.49l-8.05,10.33c.31-4.66.63-9.32.94-13.98-4.04,3.12-7.08,6.95-8.81,11.08-.56-8.87,3.94-17.86,12.16-24.31-12.57,5.6-23.32,13.45-31.07,22.68-1.27-5.63-1.15-11.42.35-17.02-8.29,2.88-15.76,7.05-21.78,12.16-.14-5.06.21-9.34,1.64-14.27-4.74,2.59-8.36,6.3-10.19,10.46-.31-3.73-.63-7.47-.94-11.2-3.84,2.52-6.58,5.96-7.7,9.67.34-4,.68-8,1.02-12-3.15,1.73-5.63,4.11-7.21,6.77.82-2.73,1.24-5.53,1.26-8.33-5.68,2.49-10,6.66-11.78,11.37,1.09-4.14,2.18-8.27,3.28-12.41-4.8,2-8.37,5.53-9.78,9.47.94-4.28,1.88-8.56,2.81-12.84-6.26,3.16-11.27,7.67-14.25,12.84,1.01-5.17,2.02-10.34,3.03-15.51-5.76,4.84-9.95,10.69-12.14,16.93,1.22-5.15,1.88-10.37,1.96-15.59-3.97,4.91-6.07,10.64-5.98,16.36-2.31-9.82-2.69-19.88-1.11-29.78-4.92,9.49-7.06,19.76-6.22,29.91-5.75-12.81-6.08-26.92-.94-39.86-11.42,10.38-11.5,25.05-11.03,38.44-5.03-11.92-6.43-24.68-4.05-37.05-5.54,10.59-8.85,21.82-9.76,33.17-1.08-9.76-2.16-19.52-3.24-29.28-3.37,10.75-6.73,21.49-10.1,32.24-2.04-4.78-2.81-9.85-2.27-14.85-4.22,4.43-7.19,9.52-8.64,14.84.53-4.01,1.05-8.01,1.58-12.02-5.13,3.92-8.75,8.92-10.33,14.26,1-4.92,2.01-9.84,3.01-14.75-4.73,2.85-8.19,6.82-9.79,11.18.92-3.23,1.42-6.52,1.44-9.81-3.88,3.26-6.96,7.04-9.06,11.09,1.39-3.84,2.12-7.81,2.16-11.78-2.74,1.68-4.65,4.07-5.43,6.64.5-3.69.99-7.37,1.49-11.06-4.52,4.27-8.25,9-11.05,14.01,2.04-5.82,3.37-11.78,3.99-17.78-4.93,3.91-8.89,8.48-11.65,13.42.82-4.17,1.06-8.4.71-12.61-2.36,3.93-4.72,7.85-7.08,11.78-.67-5.68-1.34-11.36-2.01-17.04-3.04,4.76-3.9,10.27-2.4,15.42l-24.33-29.8c1.71,7.5,3.42,14.99,5.12,22.49-2.53-4.97-5.23-9.89-8.06-14.76v197.39h1006.41v-147.96c-6.12-13.76-7.8-28.6-4.81-42.93Z"/>
    <path class="cls-6" d="m999.99,357.98v-121.5c-9.02-12.02-23.46-21.77-40.48-27.25,16.41,11.11,23.4,27.73,29.72,43.54-10.81-17.17-31.17-30.89-55.23-37.23,20.06,11.72,34.96,28.23,41.91,46.46-13.41-17.42-35.17-31.22-60.45-38.33,10.26,4.09,18.09,10.97,23.74,18.53,5.65,7.56,9.3,15.83,12.92,24.05-6.93-13.26-19.52-24.85-35.51-32.69,12.56,10.47,21.13,23.55,24.46,37.34-5.72-5.48-11.52-11.05-14.9-17.51.54,7.55,2.75,15.04,6.51,22.06-9.77-10.12-17.98-19.94-23.79-31.71,4.35,13.12,8.7,26.25,13.05,39.37-8.24-10.81-16.61-21.89-19.43-34.14.45,10.65.25,21.32-.61,31.95-3.52-4.23-5.52-9.14-5.73-14.11-4.52,4.61-9.05,9.23-13.57,13.84,1.35-5.11,4.37-9.98,8.74-14.06-8.8,2.95-17.12,6.61-25.42,10.27,7.1-5.62,13.43-11.78,18.86-18.34-11.36,3.44-22.01,8.16-31.48,13.94,9.11-8.13,19.9-15.12,30.63-22.07-14.55.59-28.62,6.03-37.62,14.54,7.56-8.65,16.55-16.6,26.72-23.62-14.83,2.81-28.18,9.72-36.87,19.08,6.21-9.63,14.63-18.47,24.77-26.03-6.77,2.27-13.6,4.58-19.52,7.91-5.92,3.34-10.92,7.84-12.75,13.19,3.18-11.94,11.35-23.11,23.1-31.6-7.19,3-14.45,6.04-20.55,10.17s-11.01,9.51-12.24,15.56c-.06-7.19.93-14.39,2.93-21.42.82-2.87,2.12-5.99,5.03-7.81-14.22,7.27-21.96,21.04-18.61,33.65-3.01-9.26-5.41-18.63-7.18-28.07-1.93,10.63-.49,21.58,4.16,31.74-6.23-8.83-12.46-17.65-18.69-26.48,3.44,10.2,6.88,20.41,10.32,30.61-5.9-8.49-11.8-16.99-17.71-25.48,3.91,8.88,7.16,17.92,9.74,27.06-7.13-8.94-14.77-17.66-22.91-26.11,4.7,8.26,9.41,16.52,14.11,24.78-9.09-8.57-18.17-17.13-27.26-25.7l14.81,25.98-34.43-33.41c5.98,12.74,10.49,25.85,13.45,39.16-8.02-12.44-15.54-25.07-22.54-37.85,3.37,12.97,6.74,25.95,10.11,38.92-6.01-9.03-11.19-18.37-15.48-27.93,2.06,10.5,3.55,21.05,4.46,31.64-3.24-5.41-5.97-10.99-8.17-16.68-1.14,5.3-2.29,10.6-3.43,15.89-1.04-3.16-1.58-6.42-1.61-9.67-3.13,3.78-6.29,7.47-8.77,11.51.75-4.96,1.91-9.89,3.48-14.75-2.91,1.96-5.27,4.36-6.91,7.01.8-6.76,3.05-13.43,6.65-19.68-4.63,4.82-9.26,9.64-13.9,14.45-2.26-7.38-1.57-15.23,1.95-22.33-6.54,7.43-10.53,16.08-11.5,24.92-7.36-8.39-9.74-19.1-6.4-28.8-5.8,9.79-7.63,20.86-5.17,31.41-5.58-7.71-9.02-16.27-10.02-24.99-1.99,9.69-2.32,19.56-.99,29.31-5.67-6.58-10-13.79-12.78-21.32-.57,7.15-1.13,14.3-1.7,21.44-2.54-3.26-4.1-6.94-4.53-10.69l-5.94,13.33c-1.65-3.18-2.16-6.68-1.46-10.04-3.15,3.76-6.3,7.51-9.45,11.27,0-3.32.7-6.64,2.07-9.8-4.85,2.8-8.88,6.39-11.72,10.43.44-3.29,1.37-6.54,2.77-9.68-5.17,3.09-9.2,7.23-11.53,11.84-.39-3.81-.15-7.66.71-11.44-3.98,2.72-6.74,6.41-7.76,10.35-1.2-3.77-1.7-7.67-1.47-11.54-3.17,2.93-5,6.65-5.09,10.41-1.09-3.38-1.65-6.86-1.66-10.34-2.86,3.08-4.75,6.66-5.47,10.37-1.85-3.42-3-7.05-3.41-10.72-2.18,3.44-3.24,7.28-3.05,11.08-2.26-5.01-3.63-10.25-4.07-15.52-2.63,5.21-4.15,10.73-4.49,16.29-1.06-3.47-2.12-6.95-3.18-10.42-2.51,3.82-4.51,7.82-5.97,11.94-.28-3.12-.56-6.23-.84-9.35-4.12,3.24-7.43,7.03-9.73,11.14,1.44-4.46,2.89-8.92,4.33-13.37-4.98,3.19-9.96,6.38-14.95,9.57,4.8-6.09,11.54-11.35,19.5-15.21-9.06-1.08-18.77,1.73-24.46,7.07,3.22-7.31,10.94-13.45,20.54-16.34-14.75,1.35-30.91,3.58-40.22,12.18,4.76-7.02,11.42-13.33,19.46-18.44-12.47,2.73-26.59,6.56-31.02,15.62-.17-5.91,1.05-11.85,3.58-17.45-7.51,4.48-12.19,11.48-12.46,18.63-.18-6.93.81-13.88,2.92-20.63-5.46,5.76-9.43,12.29-11.63,19.14l-.93-13.28c-2.56,3.48-4.47,7.22-5.69,11.09.33-4.29.66-8.59.99-12.88-4.76,3.78-8.09,8.55-9.49,13.62,1.19-5.61,2.84-11.16,4.92-16.62-4,2.88-7.53,6.12-10.48,9.63.52-5.51,1.04-11.02,1.57-16.52-4.73,5.89-8.63,12.16-11.61,18.65,1.28-9.34,3.9-18.57,7.78-27.5-9.94,8.13-16.01,18.81-16.91,29.77-1.76-3.79-2.14-6.17-2.15-10.03-2.84,3.25-5.28,6.76-7.88,10.13.21-5.07,1.58-10.11,4.02-14.85-3.34,4.34-6.69,8.68-10.03,13.03-1.45,1.88-3.72,4.05-6.56,3.56,1.03-6.43,3.09-12.77,6.13-18.84-6.72,4.67-12.04,10.45-15.47,16.79.31-6.1,1.37-12.17,3.16-18.13-4.87,4.35-8.39,9.53-10.19,15.02.6-7.04,1.21-14.08,1.81-21.12-3.58,5.63-6.06,11.64-7.35,17.79-2.98-7.39-4.12-15.2-3.33-22.89-6.12,8.19-8.94,17.72-8,27.06-4.71-7.53-7.3-15.79-7.55-24.1-1.44,7.34-1.72,14.81-.82,22.2-4.76-8.08-8.38-16.53-10.78-25.17.74,9.28,2.83,18.5,6.22,27.45-10.13-11.79-18.11-24.6-23.63-37.97,3.18,13.51,6.36,27.03,9.54,40.54-6.31-6.15-11.59-12.89-15.67-20.01-.02,6.16-.03,12.33-.05,18.49-5.52-4.3-9.28-9.83-10.69-15.67-1.99,5.83-2.75,11.9-2.24,17.91-4.64-5.19-7.56-11.22-8.43-17.42-1.21,5.8-2.43,11.6-3.64,17.4-3.63-6.27-5.22-13.18-4.58-19.99l-7.89,18.63c-1.37-6.56-.95-13.32,1.21-19.76-6.03,6.47-12.53,12.7-19.46,18.66,3.06-7.77,6.93-15.36,11.55-22.69-10.7,7.99-20.53,16.62-29.35,25.78,6.52-9.48,13.05-18.96,19.57-28.44-11.36,7.63-20.53,17.05-26.71,27.45,3.63-10.99,8.36-21.77,14.13-32.24-9.75,8.2-18.13,17.29-24.9,27,4.2-10.26,8.41-20.52,12.61-30.78-9.86,8.26-16.72,18.48-19.68,29.3.43-6.43.85-12.85,1.28-19.28.36-5.43.73-10.91,2.62-16.16-8.88,10.73-12.95,23.62-11.42,36.17-4.28-13.39-6.39-27.16-6.27-40.92-4.41,14.52-4.33,29.79.26,44.29-6.14-13.45-11.27-27.15-15.36-41.02-1.48,12.81-.92,25.75,1.65,38.46-4.27-6.08-7.54-12.55-9.7-19.22-1.31,6.27-2.62,12.54-3.93,18.82-2.39-6.36-3.22-13.05-2.43-19.62-4.57,5.92-6.88,12.79-6.61,19.61-2.47-9.65-5.02-20.62-2.18-30.34-4.74,2.59-8.36,6.3-10.19,10.46-.31-3.73-.63-7.47-.94-11.2-3.84,2.52-6.58,5.96-7.7,9.67.34-4,.68-8,1.02-12-3.15,1.73-5.63,4.11-7.21,6.77.82-2.73,1.24-5.53,1.26-8.33-5.68,2.49-10,6.66-11.78,11.37,1.09-4.14,2.18-8.27,3.28-12.41-4.8,2-8.37,5.53-9.78,9.47.94-4.28,1.88-8.56,2.81-12.84-6.26,3.16-11.27,7.67-14.25,12.84,1.01-5.17,2.02-10.34,3.03-15.51-5.76,4.84-9.95,10.69-12.14,16.93,1.22-5.15,1.88-10.37,1.96-15.59-3.97,4.91-6.07,10.64-5.98,16.36-2.31-9.82-2.69-19.88-1.11-29.78-4.96,9.56-6.63,19.48-6.29,29.66-.6-1.6-7-9.29-5.49-10.56-5.69,4.78-10.57,10.09-14.5,15.76,1.01-7.51,3.17-14.93,6.42-22.07-7.87,4.91-13.88,11.45-17.17,18.68,2.12-9.86,5.72-19.54,10.72-28.8-10.3,8.02-21.14,16.84-22.94,27.84-.03-12.18,3.4-24.37,10-35.53-4.73,4.7-9.51,9.44-12.8,14.77-3.29,5.33-5.03,11.38-3.4,17.12-4.12-10.19-6.53-20.76-7.14-31.38-5.34,10.74-4.12,22.58-2.82,33.99-3.91-9.96-8.65-19.75-14.18-29.28,2.7,11.28,4.39,22.69,5.06,34.13-4.17-8.66-8.35-17.33-12.52-25.99,2.79,8.95,3.47,18.26,2,27.38l-8.45-19.17c-.81,6.35-1.01,12.74-.57,19.11-11.2-12.81-17.73-27.85-18.7-43.11-2.27,5.16-3.9,10.48-4.85,15.86-3.74-10.78-4.65-22.09-2.66-33.12-6.56,8.22-10.89,17.42-12.68,26.89-.33-.51-.66-1.02-1-1.52v160.04h1006.41Z"/>
  </g>
</svg>