<?xml version="1.0" encoding="UTF-8"?>
<svg xmlns="http://www.w3.org/2000/svg" viewBox="0 0 1920 1080">
  <defs>
    <style>
      .cls-1 {
        fill: #8cc63f;
      }

      .cls-2 {
        fill: #cbf26d;
      }
    </style>
  </defs>
  <g id="Layer_1" data-name="Layer 1">
    <rect class="cls-1" x="-18" y="-11" width="1961" height="1100"/>
  </g>
  <g id="Layer_2" data-name="Layer 2">
    <path class="cls-2" d="m0,1080c16.03-17.44,35.93-43.56,49-79,27.54-74.64,8.87-147.36,14-148,4.52-.56,10.99,56.99,44,125,13.36,27.52,27.07,55.78,40,54,15.92-2.19,29.11-49.75,19-91-9.51-38.81-37.01-61.25-35-63,2.14-1.86,35.43,21.78,59,63,31.16,54.49,28.57,110.35,34,110,4.6-.3-2.7-39.67,17-80,18.8-38.49,53.75-60.58,58-57,3.76,3.17-19.48,23.78-24,60-.4,3.25-7.13,63.01,27,77,24.56,10.07,59.73-7.87,66-30,7.24-25.59-25.11-53.44-21-57,4.9-4.24,49.22,36.76,57,44,27.68,25.77,30.07,31.3,41,34,28.17,6.96,58.84-18.26,73-35,36.02-42.58,24.07-99.81,22-109,21.99,43.09,28.39,78.27,30,103,1.1,16.9.3,33.95,7,36,8.63,2.63,25.23-20.96,34-43,12.68-31.88,9.55-61.99,11-62,1.72,0-6.84,42.32,14,73,15.5,22.83,41.01,29.98,75,39,51.64,13.71,88.84,23.75,125,7,37.91-17.56,36.77-46.92,94-85,17.79-11.84,33.66-19.48,44-24-26.3,16.62-35.19,46.33-25,66,8.9,17.17,29.56,21.36,33,22,8-24.33,16-48.67,24-73,.62,8.73,2.7,21.68,10,35,17.48,31.9,51.71,41.97,79,50,33.32,9.8,65.57,19.29,96,2,22.79-12.94,33.47-34.61,38-46,1.74,2.92,23.22,37.76,59,39,35.99,1.24,72.75-31.98,77-80-.9,10.5-1.46,34.98,14,57,12.51,17.81,35.08,33.41,43,28,10.48-7.15-7.4-49.28-9-53-7.88-18.28-17.83-31.61-25-40,17.33,11.3,36.99,26.02,57,45,14.15,13.43,26.06,26.69,36,39,4.6-4.74,11.69-13.34,16-26,7.04-20.64,2.1-38.59,0-45,10.77,7.49,25.13,19.82,35,39,8.72,16.95,7.89,27.5,17,32,17.1,8.44,44.89-16.43,50-21,21.3-19.06,30.67-42.72,35-59-.5,8.32-.12,21.65,6,36,10.14,23.78,34.16,45.88,46,41,11.41-4.7,12.5-34.86,4-73,7.4,8.07,17.94,21.66,25,41,4.49,12.29,6.3,23.41,7,32,2.15-.2,33.57-3.72,48-32,11.82-23.15,3.38-45.52,2-49,1.89,14.62,8.37,48.06,35,65,5.78,3.68,13.92,7.48,45,12,18.88,2.75,45.09,5.59,77,6,4,33.33,8,66.67,12,100-653.33-3-1306.67-6-1960-9-5.06-42.49-4.73-64.49,1-66,3.72-.98,9.72,6.69,18,23Z"/>
  </g>
</svg>