<svg xmlns="http://www.w3.org/2000/svg" version="1.1" xmlns:xlink="http://www.w3.org/1999/xlink" xmlns:svgjs="http://svgjs.com/svgjs" width="1440" height="560" preserveAspectRatio="none" viewBox="0 0 1440 560"><g mask="url(&quot;#SvgjsMask1025&quot;)" fill="none"><rect width="1440" height="560" x="0" y="0" fill="rgba(154, 201, 168, 1)"></rect><path d="M 0,21 C 57.6,58.6 172.8,190.2 288,209 C 403.2,227.8 460.8,115.4 576,115 C 691.2,114.6 748.8,216.4 864,207 C 979.2,197.6 1036.8,61.4 1152,68 C 1267.2,74.6 1382.4,205.6 1440,240L1440 560L0 560z" fill="rgba(20, 171, 59, 1)"></path><path d="M 0,509 C 41.2,476.4 123.6,353.6 206,346 C 288.4,338.4 329.6,463 412,471 C 494.4,479 535.6,387.8 618,386 C 700.4,384.2 741.6,483.2 824,462 C 906.4,440.8 947.6,260.4 1030,280 C 1112.4,299.6 1154,547.8 1236,560 C 1318,572.2 1399.2,384.8 1440,341L1440 560L0 560z" fill="rgba(84, 207, 116, 1)"></path></g><defs><mask id="SvgjsMask1025"><rect width="1440" height="560" fill="#ffffff"></rect></mask></defs></svg>