<?xml version="1.0" encoding="UTF-8"?>
<svg id="S" xmlns="http://www.w3.org/2000/svg" viewBox="0 0 300 300">
  <defs>
    <style>
      .cls-1 {
        font-size: 114.18px;
      }

      .cls-1, .cls-2 {
        font-family: Snickles, Snickles;
      }

      .cls-3, .cls-4, .cls-5 {
        stroke: #000;
        stroke-miterlimit: 10;
        stroke-width: 2px;
      }

      .cls-3, .cls-6 {
        fill: #b3b3b3;
      }

      .cls-2 {
        font-size: 110.19px;
      }

      .cls-5 {
        fill: #fff;
      }
    </style>
  </defs>
  <path class="cls-5" d="m170.72,127.76c7.41,5.94,14.09,9.09,18.83,10.85,1.98.74,23.73,9.07,43.68,2.35,3.08-1.04,6.69-2.06,7.03-1.17.46,1.2-5.19,5.33-7.28,6.74-13.67,9.22-29.82,6.42-36.4,5.28-14.7-2.55-26-9.49-33.29-15.15,2.48-2.97,4.96-5.93,7.44-8.9Z"/>
  <g>
    <path class="cls-3" d="m198.13,17.27c.39-.61,1.02-1.47,1.98-2.31.71-.62,1.3-1.15,2.2-1.43,1.5-.47,3.46-.26,4.62.88.91.89.44,1.49,1.32,3.85.97,2.58,1.85,2.7,2.42,4.84.31,1.18.7,2.64.11,4.07-1.23,2.97-5.82,3.72-8.47,3.63-1.03-.04-.96-.17-1.87-.22-3.63-.18-8.32,1.83-10.66,5.94-2.17,3.8-1.39,7.76-.99,9.24,1.17,4.33,4.32,6.82,9.46,10.55,9.98,7.27,12.29,8.22,16.05,11.1,2.71,2.08,11.63,9.35,16.93,21.66,2.12,4.92,5.37,12.47,3.85,22.32-1.46,9.44-6.52,15.96-9.68,19.24-2.65,2.76-9.26,9.44-20.12,10.66-11.02,1.25-19.18-3.95-21.44-5.5-.64,1.1-1.77,2.74-3.63,4.18-4.83,3.75-10.59,3.09-12.64,2.86-1.81-.21-5.39-.66-8.58-3.19-1.76-1.39-1.58-1.98-3.41-3.74-4.3-4.14-9.66-5.1-9.68-5.06-.01.03,3.83.77,8.22,3.74,3.39,2.3,5.47,4.82,8.6,8.68,3.5,4.32,2.56,4.02,4.73,6.38,5.29,5.76,9.89,6.42,10.11,10.01.08,1.23-.36,2.79-1.43,3.52-1.43.98-3.16-.09-8.8-1.65-3.49-.97-5.27-1.45-6.82-1.32-1.46.12-1.66.43-6.6,1.76-2.45.66-3.68.99-4.4,1.1-3.83.56-5.19-.43-8.14-.11-2.88.32-4.23,1.56-6.6,2.75-6.54,3.29-14.61,3.07-20.34.99-1.85-.67-7.68-2.79-9.02-7.48-.53-1.86-.09-3.21.11-4.62,1.39-9.61-8.37-18.9-8.36-18.91,0,0,6.23,5.23,7.37,14.18.26,2.03,1.05,10.51-4.29,15.5-.77.72-2.39,2.2-4.84,2.64-3.46.62-6.33-1.26-8.91-2.86-11.65-7.24-10.61-4.69-15.5-8.69-7.52-6.14-7.16-9.86-14.4-13.74-3.87-2.07-4.26-1.16-8.25-3.19-2.61-1.33-11.35-6.25-14.51-14.62-2.15-5.7.29-12.67,5.17-26.61,3.96-11.32,6.12-17.23,11.54-20.23,1.68-.93,4.46-2.02,7.7-4.95,3.37-3.05,2.99-4.27,5.72-6.27.54-.4,6.65-4.76,11.87-2.75,3.23,1.24,4.71,4.38,7.15,3.74.65-.17.64-.42,2.09-1.21,2.12-1.15,3.89-1.56,4.62-1.76,3.82-1.05,5.61-3.61,9.13-5.06,7.35-3.04,16.2,1.25,17.92,2.09,2.91,1.41,4.01,2.63,8.03,4.07,1.36.49,2.21.7,7.48,1.87,9.93,2.21,10.42,2.24,11.76,2.97,3.41,1.84,2.4,2.78,7.37,6.38,3.33,2.41,6.35,3.85,9.49,5.35,5.5,2.62,5.2,1.81,7.62,3.23,7.1,4.15,6.28,9.15,13.49,12.9,2.44,1.27,4.49,2.34,7.33,2.35,2.53,0,3.92-.84,6.16,0,2.13.8,2.21,2.08,3.81,2.35,2.26.38,5.2-1.63,6.16-4.1,2.04-5.26-5.25-11.81-6.16-12.61-2.85-2.51-5.57-3.6-6.74-4.1-8.12-3.53-16.4-11.56-20.23-19.94-4.28-9.36-3.94-21.21,1.17-30.49,1.52-2.76,5.35-9.49,13.49-12.9,4.51-1.89,8.63-2.05,11.14-1.94Z"/>
    <g>
      <path class="cls-6" d="m127.33,102.81c1.01.76,2.56,1.65,4.29,1.43,1.72-.22,2.06-1.32,4.51-2.42,1.33-.6,4.13-1.86,6.05-.66.91.57,1.29,1.6,2.09,3.63.45,1.15.69,2.16.51,2.25-.27.13-1.05-2.06-2.38-2.14-.88-.05-1.03.87-2.09,1.21-1.82.58-2.77-1.72-5.72-2.09-1.89-.24-2.36.61-4.35.17-1.3-.28-2.28-.9-2.91-1.38Z"/>
      <path d="m127.33,102.81c1.51.89,3.33,1.43,4.79.82.68-.27,1.27-.9,2.03-1.46,2.4-1.56,5.33-3.21,8.26-1.95,1.98,1.05,2.57,3.76,3.28,5.73.07.32.2.85.08,1.3-.14.58-.86.96-1.44.7-.89-.45-1.14-1.87-2.02-2.1-.01-.05-.36.32-.84.68-.5.36-1.13.57-1.79.55-1.19-.06-1.92-.78-2.75-1.34-1.35-.96-2.82-1.41-4.55-1.03-1.89.26-3.73-.62-5.04-1.89h0Zm0,0c1.51.88,3.31,1.4,4.85.92,1.72-.67,4-.34,5.57.67,1.16.62,1.75,1.3,2.64.65,1.89-2.19,3.7-.8,4.88,1.13.03.06.14.16.01.04-.03-.03-.07-.05-.11-.07-.56-.31-1.28.12-1.32.68-.21-1.09-.74-2.29-1.16-3.35-.3-.66-.54-1.26-1.15-1.59-2.05-.94-4.76.42-6.66,1.37-2.58,2-5.16,1.86-7.54-.45h0Z"/>
    </g>
    <g>
      <line class="cls-6" x1="185.07" y1="20.12" x2="187.87" y2="24.2"/>
      <polygon points="185.89 19.56 187.87 24.2 184.24 20.69 185.89 19.56 185.89 19.56"/>
    </g>
    <g>
      <line class="cls-6" x1="195.86" y1="31.27" x2="192.86" y2="27.33"/>
      <polygon points="195.06 31.87 192.86 27.33 196.65 30.66 195.06 31.87 195.06 31.87"/>
    </g>
    <g>
      <line class="cls-6" x1="191.39" y1="35.16" x2="187.36" y2="32.29"/>
      <polygon points="190.81 35.98 187.36 32.29 191.97 34.35 190.81 35.98 190.81 35.98"/>
    </g>
    <g>
      <line class="cls-6" x1="188.65" y1="43.45" x2="184.29" y2="45.79"/>
      <polygon points="189.12 44.33 184.29 45.79 188.17 42.57 189.12 44.33 189.12 44.33"/>
    </g>
    <g>
      <line class="cls-6" x1="194.4" y1="53.69" x2="191.39" y2="60.7"/>
      <polygon points="195.32 54.09 191.39 60.7 193.48 53.3 195.32 54.09 195.32 54.09"/>
    </g>
    <g>
      <line class="cls-6" x1="198.4" y1="57.2" x2="196.12" y2="62.49"/>
      <polygon points="199.32 57.59 196.12 62.49 197.48 56.8 199.32 57.59 199.32 57.59"/>
    </g>
    <g>
      <line class="cls-6" x1="209.28" y1="64.67" x2="207.01" y2="69.96"/>
      <polygon points="210.2 65.06 207.01 69.96 208.36 64.27 210.2 65.06 210.2 65.06"/>
    </g>
    <g>
      <line class="cls-6" x1="224.49" y1="78.5" x2="220.12" y2="82.25"/>
      <polygon points="225.14 79.26 220.12 82.25 223.84 77.74 225.14 79.26 225.14 79.26"/>
    </g>
    <g>
      <line class="cls-6" x1="235.47" y1="104.13" x2="227.94" y2="108.34"/>
      <polygon points="235.95 105 227.94 108.34 234.98 103.26 235.95 105 235.95 105"/>
    </g>
    <g>
      <line class="cls-6" x1="235.47" y1="101.12" x2="230.1" y2="104.13"/>
      <polygon points="235.95 102 230.1 104.13 234.98 100.25 235.95 102 235.95 102"/>
    </g>
    <g>
      <line class="cls-6" x1="227.18" y1="80.75" x2="221.81" y2="83.75"/>
      <polygon points="227.67 81.62 221.81 83.75 226.69 79.87 227.67 81.62 227.67 81.62"/>
    </g>
    <g>
      <line class="cls-6" x1="231.31" y1="88.82" x2="223.79" y2="93.04"/>
      <polygon points="231.8 89.7 223.79 93.04 230.82 87.95 231.8 89.7 231.8 89.7"/>
    </g>
    <g>
      <line class="cls-6" x1="180.25" y1="24.2" x2="185.07" y2="29.77"/>
      <polygon points="181.01 23.54 185.07 29.77 179.5 24.85 181.01 23.54 181.01 23.54"/>
    </g>
    <g>
      <line class="cls-6" x1="172.07" y1="35.03" x2="176.46" y2="37.31"/>
      <polygon points="172.53 34.14 176.46 37.31 171.61 35.92 172.53 34.14 172.53 34.14"/>
    </g>
    <g>
      <line class="cls-6" x1="169.61" y1="49.5" x2="177.61" y2="48.09"/>
      <polygon points="169.43 48.52 177.61 48.09 169.78 50.49 169.43 48.52 169.43 48.52"/>
    </g>
    <g>
      <line class="cls-6" x1="175.17" y1="66.88" x2="178.82" y2="63.53"/>
      <polygon points="174.5 66.14 178.82 63.53 175.85 67.61 174.5 66.14 174.5 66.14"/>
    </g>
    <g>
      <line class="cls-6" x1="187.15" y1="79.37" x2="192.86" y2="71.4"/>
      <polygon points="186.33 78.79 192.86 71.4 187.96 79.95 186.33 78.79 186.33 78.79"/>
    </g>
    <g>
      <line class="cls-6" x1="185.79" y1="78.12" x2="188.5" y2="73.98"/>
      <polygon points="184.96 77.57 188.5 73.98 186.63 78.67 184.96 77.57 184.96 77.57"/>
    </g>
    <g>
      <line class="cls-6" x1="196.89" y1="84.51" x2="199.6" y2="80.37"/>
      <polygon points="196.06 83.96 199.6 80.37 197.73 85.06 196.06 83.96 196.06 83.96"/>
    </g>
    <g>
      <line class="cls-6" x1="171.13" y1="61.32" x2="175.72" y2="59.48"/>
      <polygon points="170.76 60.39 175.72 59.48 171.5 62.25 170.76 60.39 170.76 60.39"/>
    </g>
    <g>
      <path class="cls-6" d="m72.8,74.11c-2.55,2.28-6.46,5.5-11.65,8.8-5.04,3.19-6.64,3.5-8.58,5.94-3.49,4.39-3.4,9.79-3.3,15.83.13,7.56.21,12.42,3.52,16.71,3.77,4.89,8.1,4.34,12.75,10.55,2.04,2.72,3.13,5.39,3.74,7.26"/>
      <path d="m72.86,74.19c-5.11,4.78-10.9,8.89-16.92,12.41-6.32,3.79-6.15,11.82-5.86,18.39.28,10.18.74,15.97,10.41,21.15,4.54,2.92,7.64,7.84,8.89,13.03,0,0-.19.06-.19.06-.69-1.61-1.46-3.16-2.42-4.59-1.84-2.88-4.25-5.32-7.22-7-10.63-5.06-11.23-11.93-11.07-22.62,0-5.18-.19-11.06,2.96-15.58,1.01-1.5,2.41-2.81,3.98-3.69,6.18-3.31,12.01-7.13,17.32-11.71l.13.15h0Z"/>
    </g>
    <g>
      <path class="cls-6" d="m100.35,105.12c1.13,1.36,2.71,3.52,3.96,6.45,1.99,4.65,1.07,6.34,2.93,8.5,1.81,2.09,3.97,2,10.7,3.52,4.24.96,7.64,1.95,9.82,2.64"/>
      <path d="m100.43,105.05c2.15,2.38,3.9,5.15,5.05,8.21,1.07,2.77.87,6.39,4.06,7.53,2.84.94,6.26,1.05,9.21,1.95,3.1.85,6.16,1.9,9.04,3.38,0,0-.06.19-.06.19-4.79-.69-9.4-1.55-14.08-2.63-4.86-1.04-8.13-2.24-8.59-7.85-.68-3.88-2.38-7.5-4.78-10.67,0,0,.15-.13.15-.13h0Z"/>
    </g>
    <g>
      <path class="cls-6" d="m132.28,98.19c.38-.49,1.71-2.09,4.07-2.64,3-.7,5.33.83,5.72,1.1"/>
      <path d="m132.28,98.19c1.01-4.14,7.5-5.18,9.79-1.54-3.88-.69-6.33-.36-9.79,1.54h0Z"/>
    </g>
  </g>
  <text class="cls-2" transform="translate(160.95 264.66)"><tspan x="0" y="0">ZOO</tspan></text>
  <text class="cls-1" transform="translate(39.57 264.44)"><tspan x="0" y="0">SIO</tspan></text>
  <path d="m104.5,77.47c1.12-2.47,3.41-5.05,6.44-5.12,2.9.05,4.86,2.23,7.57,2.79,1.61.45,3.32.67,5.12.79-1.67.7-3.55.95-5.41.74-7.14-1.12-6.36-5.33-13.72.79h0Z"/>
  <path d="m143.2,104.23h.01c-.17.15-.33.31-.5.48.01-.01.02-.02.04-.03l-.63.4s.02-.01.03-.01l-.75.28s.03,0,.05-.01l-.79.13s.04,0,.06,0l-.75-.03s.05,0,.07.01l-.68-.17s.08.03.12.05l-.57-.31s.09.05.13.08l-.43-.43s.03.04.05.06l-.25-.54s0,.03.01.04l-.05-.59s0,.03,0,.04l.16-.58s0,.02-.01.04l.34-.55s0,.01-.02.02l.5-.49s-.01.01-.02.02l.63-.4h-.01c.25-.09.5-.18.75-.28,0,0-.02,0-.02,0l.79-.13h-.01c.25,0,.5.02.75.03h-.01c.23.06.45.11.68.17-.01,0-.02,0-.03-.01l.57.31s-.04-.03-.05-.04l.43.43s-.02-.02-.03-.03c-.07-.08-.16-.16-.22-.22.05.05-.15-.16-.23-.23,0,0-.02-.01-.03-.02l-.57-.31h0c-.06-.03-.62-.17-.69-.18-.13-.02-.32-.01-.39-.02-.44-.02-.25-.02-.38-.01-.49.01-1.12.2-1.56.42-.65.32-1.21.83-1.52,1.49,0,.02-.02.04-.02.06-.04.11-.13.48-.16.59,0,.01,0,.02,0,.03,0,.02,0,.04,0,.05,0,.01,0,.02,0,.03l.05.59s0,.02,0,.02c0,.02,0,.03.01.05.07.2.16.4.27.58.12.2.31.37.5.51,0,0,.02.01.03.02l.28.15c.1.06.2.11.3.16.12.05.29.08.38.1.06.01.26.08.39.1.01,0,.02,0,.03,0l.75.03s.02,0,.03,0c.02,0,.04,0,.06,0,.01,0,.02,0,.03,0l.4-.07c.14-.02.27-.04.41-.07.28-.06.71-.26.86-.31.04-.01.07-.03.11-.05.25-.14.5-.28.73-.46.01-.01.03-.02.04-.04,0,0,.02-.01.02-.02.16-.15.36-.34.51-.5.03-.03.06-.06.08-.1,0,0,.01-.02.02-.03.11-.18.24-.38.35-.56.01-.02.02-.04.03-.06.1-.22.17-.47.2-.71,0-.01,0-.03,0-.04l-.05-.59s0-.02,0-.03c-.11-.38-.37-.78-.7-1,0,0-.02-.01-.02-.02l-.57-.31h-.01c-1.21-.53-.44-.15-.69-.18l-.75-.03c-.27.04-.54.09-.81.13-.39.09-.75.25-1.07.48-.32.17-.59.4-.82.69-.22.24-.36.53-.42.84-.11.29-.12.58-.03.88l.25.54c.26.34.59.59,1,.74l.68.17c.52.07,1.03.04,1.54-.1h.01c-.51.03-1.03.07-1.54.1h.01c-.23-.06-.45-.12-.68-.17h.01c-.19-.1-.38-.2-.57-.3,0,0,.02,0,.02.02l-.43-.43s.01.02.02.02l-.25-.54s0,.02.01.03l-.05-.59s0,.05,0,.08l.16-.58c-.02.06-.04.11-.07.16l.34-.55s-.07.09-.11.14l.5-.49s-.09.08-.14.11l.63-.4s-.08.05-.13.06l.75-.28s-.08.03-.12.03l.79-.13s-.08,0-.12,0l.75.03s-.05,0-.08-.01l.68.17s-.04-.01-.06-.02l.57.31s-.04-.03-.06-.05l.43.43s-.03-.04-.04-.06l.25.54s-.02-.07-.03-.1l.05.59s0-.08.01-.12l-.16.58s.02-.05.03-.07l-.34.55s.01-.02.02-.02l-.5.49h.01c-.21.12-.42.26-.63.39,0,0,.01,0,.02-.01l-.75.28h0c-.26.04-.53.08-.79.13h0c-.25-.01-.5-.02-.75-.03,0,0,.01,0,.02,0l-.68-.17s.01,0,.02,0l-.57-.31s.03.02.04.03l-.43-.43c.17.17.32.37.52.51.39.28.81.43,1.28.5.25.04.52.05.77.03l.79-.13s.01,0,.02,0c.47-.11,1.05-.4,1.42-.71.51-.42.36-.31.51-.51l.34-.55s0-.02.01-.02c.08-.2.16-.42.16-.64,0,.05,0-.43-.05-.62-.04-.1-.08-.19-.13-.28-.04-.1-.09-.19-.13-.28-.12-.19-.33-.36-.47-.48-.02-.02-.05-.04-.07-.05-.02,0-.03-.02-.05-.03-.19-.11-.4-.22-.59-.32-.03-.02-.06-.03-.1-.04-.61-.2-.85-.22-1.5-.21-.01,0-.03,0-.04,0,0,0-.02,0-.02,0l-.79.13c-.28.07-.56.18-.82.31l-.63.4s-.02.01-.03.02c-.19.15-.36.33-.52.51-.22.24-.36.53-.42.84-.11.29-.12.58-.03.88.07.31.23.56.47.75.21.25.47.42.78.52l.68.17c.52.07,1.03.04,1.54-.1l.75-.28c.44-.21.82-.51,1.13-.89h0Z"/>
  <path d="m129.48,91.87c2.61-4.53,8.54-7.9,13.82-6.1,1.05.42,1.73,1.06,2.29,1.61,2.11,2.33,3.47,4.75,4.75,7.29,1.19,2.57,2.22,5.21,2.96,7.95l-.18.09-4.13-7.22c-1.48-2.34-2.96-4.72-4.84-6.71-.91-1.07-2.19-1.55-3.56-1.64-4.1-.16-8.18,1.96-10.98,4.88,0,0-.15-.14-.15-.14h0Z"/>
  <path d="m162.23,110.66c3.48,4.53,7.59,7.86,12.69,10.41,5.3,2.7,8.3,8.83,7.98,14.62-.75-2.73-1.69-5.36-3.15-7.61-2.17-3.64-6.02-5.27-9.48-7.48-3.56-2.44-6.47-5.96-8.04-9.94h0Z"/>
  <path d="m73.94,149.04c3.81,1.89,7.35,4.48,10.17,7.73.71.79,1.4,1.5,2.26,1.95,4.06,2.08,10.95.81,12.17-4.06.85-3.83-.93-7.98-2.24-11.64-.78-1.91-1.75-3.77-2.91-5.56l.15-.13c4.15,3.81,8.56,12.1,6.9,17.88-1.86,5.81-9.79,7.28-14.65,4.51-1.01-.59-1.78-1.47-2.45-2.29-2.55-3.35-5.84-6.08-9.51-8.2,0,0,.09-.18.09-.18h0Z"/>
  <path d="m110.83,142.49c-.33,3.99.39,7.9,2.15,11.32,1.89,3.81,5.52,8.44,10.23,6.95,6.47-2.87,13.85-3.77,20.64-1.59-3.98-.32-7.93-.25-11.72.57-1.89.43-3.72.99-5.5,1.76-1.9.79-3.99,1.84-6.2,1.49-8.23-1.61-11.94-13.32-9.6-20.49h0Z"/>
  <path class="cls-4" d="m205.3,24.98c-.3.59-2.27.41-3.7-.45-.53-.32-1.55-.93-1.79-2.11-.21-1.03.21-2.36.96-2.55.51-.13,1.01.32,1.91,1.15.87.8,1.33,1.52,1.98,2.55.5.79.74,1.2.64,1.4Z"/>
  <path class="cls-4" d="m204.91,19.3c-.36-.8-.69-1.53-.51-1.66.21-.15,1.12.61,1.72,1.47,1.12,1.6,1.3,3.71.96,3.83-.45.17-1.95-3.15-2.17-3.64Z"/>
  <path d="m190.87,131.59c3.21,6.3,7.8,8.32,14.53,9.3,0,0,.03.2.03.2-4.78,2.67-10.21-.96-12.75-5.06-.86-1.38-1.56-2.83-2-4.37l.19-.07h0Z"/>
  <path d="m201.87,133.34c1.43,1.96,3.45,3.42,5.69,4.24,2.38.65,4.52.85,6.97,1.62,0,0,.02.2.02.2-3.66,2.18-8.13.05-10.77-2.75-.87-.96-1.61-2.04-2.09-3.22,0,0,.18-.09.18-.09h0Z"/>
  <path d="m222.32,122.15c1.59.52,3.3.48,4.88.06,1.64-.64,2.92-1.21,4.82-1.26,0,0,.11.16.11.16-.81,1.9-2.75,2.74-4.7,2.68-1.84.12-3.77-.35-5.22-1.47,0,0,.1-.17.1-.17h0Z"/>
  <path d="m83.43,68.79c2.09.88,4.09,2.77,4.4,5.2.34,2.03-1.26,4.22.3,5.87,1.91,1.84,5.38,2.53,7.4,4.65,3.5,3.3,4.09,8.63,3.38,13.05-.57-4.29-1.35-8.77-4.66-11.65-1.57-1.41-3.7-2.16-5.59-3.24-2.54-1.25-3.67-4.05-2.53-6.64,1.17-2.81-.49-5.45-2.71-7.24h0Z"/>
</svg>